<svg width="153" height="136" viewBox="0 0 153 136" fill="none" xmlns="http://www.w3.org/2000/svg">
<mask id="mask0" mask-type="alpha" maskUnits="userSpaceOnUse" x="0" y="0" width="153" height="136">
<rect x="1" y="1" width="151" height="134" fill="#C4C4C4" stroke="white" stroke-width="2"/>
</mask>
<g mask="url(#mask0)">
<path d="M85.0303 126.152C93.0149 125.091 110.093 115.539 117.634 110.896C120.297 109.291 124.287 99.6208 124.952 97.6309C125.618 95.641 126.95 89.6713 128.946 84.3649C130.942 79.0586 129.611 63.1394 128.946 61.1496C128.28 59.1597 123.623 43.9038 122.292 40.5874C120.961 37.2709 113.642 29.3113 112.311 27.3214C111.246 25.7295 101.665 20.9096 97.0073 18.6986C93.0149 16.9298 83.8326 13.5249 79.0419 14.0555C73.0534 14.7188 61.0765 21.3518 57.7495 22.6784C54.4226 24.005 41.1149 33.9544 35.1265 38.5975C29.138 43.2405 27.8072 53.19 28.4726 58.4964C29.138 63.8027 25.8111 83.0383 25.1457 87.0181C24.4803 90.9979 25.8111 101.611 35.1265 110.896C44.4418 120.182 47.7688 119.519 57.7495 124.826C67.7303 130.132 75.0495 127.479 85.0303 126.152Z" stroke="#DFBC82" stroke-width="2"/>
<path d="M88.9051 154.082C101.528 152.407 128.528 137.325 140.45 129.994C144.66 127.459 150.968 112.191 152.02 109.049C153.072 105.907 155.177 96.481 158.333 88.1025C161.489 79.7241 159.385 54.5886 158.333 51.4467C157.281 48.3047 149.918 24.2166 147.814 18.9801C145.71 13.7435 134.139 1.17578 132.035 -1.96614C130.352 -4.47969 115.204 -12.0901 107.84 -15.5812C101.528 -18.374 87.0116 -23.7502 79.4376 -22.9124C69.9701 -21.865 51.0352 -11.3919 45.7755 -9.29732C40.5158 -7.2027 19.4769 8.50696 10.0095 15.8381C0.541977 23.1693 -1.5619 38.879 -0.509964 47.2574C0.541977 55.6359 -4.71773 86.0079 -5.76967 92.2918C-6.82161 98.5756 -4.71773 115.333 10.0095 129.994C24.7366 144.656 29.9964 143.609 45.7755 151.988C61.5546 160.366 73.126 156.177 88.9051 154.082Z" stroke="#DFBC82" stroke-width="2"/>
<path d="M118.496 132.623C124.609 128.583 134.204 117.894 138.237 113.054C142.692 102.323 145.241 89.0664 147.151 82.1224C149.061 75.1784 147.151 61.9222 147.151 54.9784C147.151 48.0345 141.42 33.5156 140.147 29.0966C138.873 24.6777 132.505 13.9466 128.685 9.52776C124.864 5.10895 108.308 -2.46616 101.304 -4.35994C94.2992 -6.25371 81.5638 -6.25371 73.2858 -5.62245C65.0078 -4.9912 56.7298 -1.8349 47.1783 1.95253C37.6268 5.73994 28.0762 15.2091 20.434 22.1529C12.7919 29.0968 10.2457 39.1969 7.06187 46.1408C3.87804 53.0846 3.24127 58.1347 0.694199 75.1787C-1.85289 92.2227 3.24127 99.1665 5.78835 107.373C8.33542 115.579 17.2502 124.417 18.5237 126.942C19.7953 129.463 22.9723 132.613 26.7841 136.393L26.8017 136.411C30.6214 140.198 38.9003 144.617 43.9945 146.511C49.0886 148.404 60.5504 150.298 69.4652 150.93C78.38 151.561 91.753 147.773 94.9359 146.511C98.1188 145.248 110.856 137.673 118.496 132.623Z" stroke="#DFBC82" stroke-width="2"/>
<path d="M79.2823 72.9212C79.2823 71.1444 80.99 69.5785 83.264 69.5785C84.3793 69.5785 85.2019 69.9624 85.7479 70.5457C86.2988 71.1342 86.6055 71.966 86.6055 72.9212C86.6055 73.8835 86.2936 74.8954 85.715 75.6558C85.1444 76.4058 84.3233 76.9043 83.264 76.9043C82.1894 76.9043 81.1938 76.3909 80.4578 75.6146C79.7184 74.8346 79.2823 73.8322 79.2823 72.9212Z" stroke="#DFBC82"/>
<path d="M92.2295 79.3259C94.2783 77.2765 93.51 71.6405 92.8698 68.4383C92.8698 65.8759 93.765 61.9051 92.2295 58.8309C90.6941 55.7568 86.04 56.2691 83.9049 56.9096C79.2098 58.404 71.1 60.7527 69.8196 62.6736C68.3985 64.8054 68.9659 69.5051 69.8196 72.2804C71.5269 75.2693 74.9415 81.7595 80.0635 83.8091C87.7464 86.8834 89.6685 81.8877 92.2295 79.3259Z" stroke="#DFBC82" stroke-width="2"/>
<path d="M81.3264 92.9068C86.0828 94.9501 91.676 90.3527 93.878 87.7986C93.878 85.2441 99.8234 77.5824 101.145 75.6668C102.466 73.7512 101.805 71.8357 99.8234 66.0889C97.8416 60.3421 98.5022 59.065 95.8598 54.5953C93.7459 51.0195 87.9325 50.1256 85.2901 50.1256C81.5467 49.6999 73.7955 49.4871 72.7386 52.0412C71.4173 55.2338 68.7749 57.1494 68.1143 57.788C67.4537 58.4265 62.1688 57.788 60.187 64.1733C58.2052 70.5586 61.5082 74.3898 63.4901 75.0283C65.4719 75.6668 67.4537 78.8595 68.1143 82.6907C68.6428 85.7556 71.4173 88.2246 72.7386 89.076C73.6194 89.5016 76.5701 90.8635 81.3264 92.9068Z" stroke="#DFBC82" stroke-width="2"/>
<path d="M86.2169 99.6155C97.9765 97.489 105.371 83.2318 107.598 76.3683C108.314 74.3761 109.603 57.7701 103.589 53.1207C97.5758 48.4713 92.2304 43.1577 88.8896 39.8366L88.8896 39.8366C85.5487 36.5156 77.3057 39.5067 76.1944 41.165C74.8587 43.1582 65.5037 47.8071 63.4992 48.4713C61.4947 49.1355 54.8136 49.8003 52.8086 54.4491C49.8648 61.2743 54.8131 66.4048 56.1494 75.0395C57.4857 83.6741 57.4863 83.0105 62.8317 90.3168C68.177 97.6231 74.1899 94.9661 76.1944 95.6303C78.1989 96.2945 79.5358 100.824 86.2169 99.6155Z" stroke="#DFBC82" stroke-width="2"/>
<path d="M101.935 100.799C109.539 97.2612 113.553 86.2695 114.609 81.2158C117.777 76.1626 117.144 66.6859 117.144 64.1591C117.144 61.6323 116.547 59.6439 111.44 53.42C105.739 46.4712 103.836 40.7858 103.836 39.5224C103.836 38.259 91.1619 30.0467 81.6564 29.415C72.151 28.7833 67.7151 35.1004 65.814 35.7321C63.9129 36.3638 52.5063 47.7346 50.6052 48.998C48.7041 50.2615 44.9019 57.842 44.2682 67.9494C43.6345 78.0567 48.0704 85.0055 52.5063 91.9544C56.9422 98.9032 65.814 102.694 79.1217 105.221C92.4293 107.748 92.4293 105.221 101.935 100.799Z" stroke="#DFBC82" stroke-width="2"/>
<path d="M82.6205 115.832C89.279 117.369 93.9314 113.91 95.4253 111.989C97.1327 110.068 101.188 106.353 103.749 106.866C106.95 107.506 111.432 104.304 114.633 100.461C117.834 96.6186 119.114 87.0118 120.395 83.8096C121.675 80.6074 121.035 69.7197 121.675 65.2366C122.316 60.7534 117.194 49.2253 115.913 46.0231C114.633 42.8208 110.791 34.495 107.59 31.2927C104.389 28.0905 95.4253 26.1692 89.0229 23.6074C82.6205 21.0456 78.1388 23.6074 69.1753 26.1692C60.2119 28.7309 60.2119 34.495 53.8095 37.0568C47.4071 39.6186 47.4071 45.3826 41.0046 53.7085C34.6022 62.0343 37.1631 76.7647 38.4436 85.7309C39.7241 94.6972 43.5656 98.5399 49.968 104.304C56.3705 110.068 74.2973 113.91 82.6205 115.832Z" stroke="#DFBC82" stroke-width="2"/>
<rect x="1" y="1" width="151" height="134" stroke="#DFBC82" stroke-width="2"/>
</g>
</svg>
