<svg width="220" height="157" viewBox="0 0 220 157" fill="none" xmlns="http://www.w3.org/2000/svg">
<path d="M1 79.3684V85.7264L16.5022 94.4268M1 79.3684L4.55259 81.3762V76.6961M1 79.3684L4.55259 76.6961M4.55259 64.3101L11.9807 67.991M4.55259 64.3101L103.379 2L214.156 63.9754M4.55259 64.3101V76.6961M11.9807 67.991L13.2726 85.7264M11.9807 67.991L24.5763 59.9599M13.2726 85.7264L16.5022 88.7381M13.2726 85.7264L25.8681 78.6992M16.5022 88.7381V94.4268M16.5022 88.7381L25.8681 83.384M16.5022 94.4268L25.8681 88.0688M214.156 63.9754L118.236 128.559M214.156 63.9754V81.0416M118.236 128.559V147.298M118.236 128.559L109.193 124.878M118.236 147.298L214.156 81.0416M118.236 147.298L121.465 149.975M214.156 81.0416L219 83.0494M219 83.0494L121.465 149.975M219 83.0494V89.4073C186.919 111.27 121.446 156.266 121.465 155.999M121.465 149.975C121.465 152.095 121.5 155.521 121.465 155.999M121.465 155.999L104.994 147.298V141.61M104.994 141.61L109.193 143.952V138.263M104.994 141.61L109.193 138.263M109.193 138.263V124.878M109.193 124.878L177.338 78.6444M155.053 38.5206L199.945 63.3062L187.027 72.0709M155.053 38.5206L62.363 98.4424M155.053 38.5206V55.5867M62.363 98.4424V114.839M62.363 98.4424L54.9348 94.7614M62.363 114.839L155.053 55.5867M62.363 114.839L66.2385 117.851M155.053 55.5867V61.6101M155.053 55.5867L187.027 72.0709M155.053 67.2988L177.338 78.6444M155.053 67.2988L66.2385 123.205M155.053 67.2988V61.6101M177.338 78.6444L182.182 75.3576M182.182 75.3576L155.053 61.6101M182.182 75.3576L187.027 72.0709M155.053 61.6101L66.2385 117.851M66.2385 117.851V123.205M66.2385 123.205L50.7674 114.811V109.128M50.7674 109.128L54.9348 111.158V106.865M50.7674 109.128L54.9348 106.865M54.9348 106.865V104.633M54.9348 94.7614L68.1763 85.7264L24.5763 59.9599M54.9348 94.7614V95.0961M24.5763 59.9599L25.8681 78.6992M25.8681 78.6992V83.384M25.8681 78.6992V88.0688M25.8681 78.6992L54.9348 95.0961M25.8681 83.384L54.9348 99.7809M25.8681 88.0688L54.9348 104.633M54.9348 95.0961V99.7809M54.9348 99.7809V104.633M103.379 10.7004L147.302 33.8358L133 43.6909M103.379 10.7004C78.7264 27.0973 29.3227 55.2081 30.0978 56.2789C30.4637 56.7845 35.1689 59.9936 43.5 65.2721M103.379 10.7004V40.1708M52.5 70.6674C59.9827 75.3712 67.1026 79.2452 72.6978 82.7147L123.5 50.0672M52.5 70.6674L103.379 40.1708M52.5 70.6674C51.2462 69.8792 49.2939 68.762 48.0717 67.991M103.379 40.1708L123.5 50.0672M123.5 50.0672L128 47.1243M128 47.1243L103.379 35.1513L48.0717 67.991M128 47.1243L133 43.6909M48.0717 67.991C46.8087 67.1943 44.703 66.0343 43.5 65.2721M43.5 65.2721L103.379 29.7973L133 43.6909" stroke="#DFBC82" stroke-width="2"/>
</svg>
