<svg width="220" height="157" viewBox="0 0 220 157" fill="none" xmlns="http://www.w3.org/2000/svg">
<path d="M7.16087 54.9179V61.6239L64.5043 89.7856M7.16087 54.9179L102.891 2L213.787 53.0018M7.16087 54.9179L123.27 110.483L213.787 53.0018M213.787 53.0018V62.103M213.787 62.103L209.522 64.7749L208.1 65.6655M213.787 62.103V88.9535V90.9134V93.2646V94.5419C215.525 94.9058 219 96.5915 219 101.382C214.735 101.408 208.11 101.382 201.939 101.382C201.939 99.4656 202.403 94.6755 208.1 94.5414V65.6655M115.213 114.689L124.217 118.626L130.44 114.315M115.213 114.689C117.109 115.417 118.057 115.781 121.374 117.357M115.213 114.689L64.5043 89.7856M130.44 114.315C128.009 115.999 128.366 115.752 126.551 117.189M130.44 114.315L208.1 65.6655M56.0295 85.6236L59.2913 87.2254M106.209 9.32429V32.6826V34.6424V36.9936V38.271C107.946 38.6348 111.896 40.3206 111.896 45.1106C107.63 45.1367 100.531 45.1106 94.3609 45.1106C94.3609 43.1946 94.8348 38.4045 100.531 38.2704C100.514 37.5602 100.482 38.0742 100.522 37.4726L100.531 9.66411M146.913 56.549C146.873 57.1506 146.905 56.6366 146.923 57.3468M146.923 57.3468C141.226 57.4809 140.752 62.271 140.752 64.187C146.923 64.187 154.022 64.2131 158.287 64.187C158.287 59.3969 154.338 57.7112 152.6 57.3474V56.07V53.7188V51.7589V32.1203M146.923 57.3468V33.5638M146.923 33.5638L150.704 31.1354L152.6 32.1203M146.923 33.5638L71.1391 78.8682L123.27 103.298L202.413 53.4808L152.6 32.1203M127.061 116.71V143.56V145.52V147.871V149.149C128.799 149.513 132.274 151.198 132.274 155.988C128.009 156.015 121.384 155.988 115.213 155.988C115.213 154.072 115.677 149.282 121.374 149.148V117.398M58.8174 86.9927V120.408C53.1208 120.542 52.6565 125.332 52.6565 127.248C58.827 127.248 65.4522 127.274 69.7174 127.248C69.7174 122.458 66.242 120.772 64.5043 120.408V119.131V116.78V114.82V89.7856M8.1087 61.3594L7.16087 62.0846V95.4997C1.4643 95.6338 1 100.424 1 102.34C7.17048 102.34 14.2696 102.366 18.5348 102.34C18.5348 97.5498 15.0594 95.8641 13.3217 95.5003V94.2229V91.8717V89.9118V64.8775M64.0304 75.9942L145.017 27.7824L102.891 7.74808L21.4304 54.4808L64.0304 75.9942Z" stroke="#DFBC82" stroke-width="2"/>
</svg>
