<svg width="99" height="153" viewBox="0 0 99 153" fill="none" xmlns="http://www.w3.org/2000/svg">
<path d="M49.5 1.23424L98 36.3203V152H88.0451H67.3525H1V36.3203L49.5 1.23424Z" stroke="#DFBC82" stroke-width="2"/>
<path d="M16 120V93H32H48V101.5V120H32H16Z" stroke="#DFBC82" stroke-width="2"/>
<path d="M34 93V120" stroke="#DFBC82" stroke-width="2"/>
<path d="M47 103L35 103" stroke="#DFBC82" stroke-width="2"/>
<path d="M67 152.5V115H90V152.5" stroke="#DFBC82" stroke-width="2"/>
<path d="M31.5 73.5H17V59.5L24.3729 50H31.9915M31.5 73.5H42.5V50H39.6102H31.9915M31.5 73.5L31.9915 50" stroke="#DFBC82" stroke-width="2"/>
<path d="M67.5 73.5H82V59.5L74.6271 50H67.0085M67.5 73.5H56.5V50H59.3898H67.0085M67.5 73.5L67.0085 50" stroke="#DFBC82" stroke-width="2"/>
</svg>
