<svg width="230" height="147" viewBox="0 0 230 147" fill="none" xmlns="http://www.w3.org/2000/svg">
<path d="M12.5 77.5H1M12.5 77.5V71L37 30M12.5 77.5V111L76 145M1 77.5L33 20.7M1 77.5V75L33 16.5M33 20.7V16.5M33 20.7L37 30M73 111V106.1M73 111L37 30M73 111H76M73 106.1L33 16.5M73 106.1L228.5 72.5M33 16.5L183.5 2L228.5 72.5M76 145V111M76 145L217 107V78.6393M76 111L217 78.6393M228.5 72.5V76L217 78.6393M31.5 65.5V56L43 62V71.5M31.5 65.5V75L43 81V71.5M31.5 65.5L43 71.5M31.5 101.5V92L43 98V107.5M31.5 101.5V111L43 117V107.5M31.5 101.5L43 107.5M108.5 119.5V111L121.5 107.5V116M108.5 119.5V128.5L121.5 125V116M108.5 119.5L121.5 116M171.5 103.5V95L184.5 91.5V100M171.5 103.5V112.5L184.5 109V100M171.5 103.5L184.5 100" stroke="#DFBC82" stroke-width="2"/>
</svg>
