<svg width="147" height="148" viewBox="0 0 147 148" fill="none" xmlns="http://www.w3.org/2000/svg">
<path d="M50.75 30.0364L43.8889 1H26.9167L11.3889 30.0364L18.25 58.6639M50.75 30.0364L33.7778 58.6639H18.25M50.75 30.0364L66.2778 1H83.25L90.4722 30.0364M50.75 30.0364L57.6111 58.6639H73.1389L90.4722 30.0364M18.25 58.6639L2 88.1092L8.86111 118.373H15.3611M90.4722 30.0364L106 1H122.972L129.833 30.0364M90.4722 30.0364L97.3333 58.6639H112.861L129.833 30.0364M129.833 30.0364H138.139L145 57.8459L128.028 86.4734M26.5556 58.6639L33.4167 86.4734H48.9444M48.9444 86.4734L65.9167 58.6639L72.7778 88.9272H88.3056L105.639 58.6639L112.5 86.4734H128.028M48.9444 86.4734H41.1806M128.028 86.4734L135.611 116.737L118.639 146.182H103.111L94.8056 118.373L77.4722 147H62.6667L55.9861 116.737L38.8333 144.546H23.3056L15.3611 118.373M41.1806 86.4734L48.2222 116.737H63.75L80.7222 88.9272L88.6667 118.373H103.472L122.972 86.4734M41.1806 86.4734L23.3056 118.373H15.3611" stroke="#DFBC82" stroke-width="2"/>
</svg>
