<svg width="147" height="149" viewBox="0 0 147 149" fill="none" xmlns="http://www.w3.org/2000/svg">
<path d="M26.8867 3.05922L2 142.395C3.05341 141.731 6.58232 141.599 9.1105 143.191C12.2707 145.182 16.221 147.172 20.1713 147.57C24.1215 147.968 32.4505 145.148 33.6022 143.987C34.7873 142.793 38.3425 142.395 41.5028 142.395C43.0829 142.395 46.8751 141.598 49.4033 143.191C52.5635 145.181 56.1188 147.57 60.0691 147.968C64.0193 148.366 71.7497 144.897 73.105 143.987C74.2901 143.191 78.6354 142.395 81.7956 142.395C83.3757 141.997 86.3779 141.598 88.9061 143.191C92.0663 145.181 96.4116 147.172 100.362 147.57C104.312 147.968 112.246 145.148 113.398 143.987C114.978 142.395 118.138 142.395 121.298 142.395L145 1.46681C141.84 1.46681 138.556 3.12121 137.099 3.85527C135.519 4.65148 127.619 8.63274 123.669 8.23464C119.718 7.83654 114.978 5.04958 111.818 3.05907C109.29 1.46666 106.551 0.803162 105.497 1.46666M26.4917 3.05907C27.5451 2.39557 30.284 1.46666 32.8122 3.05907C35.9724 5.04958 39.1326 7.83629 43.0829 8.23439C47.0332 8.63249 56.1188 4.65148 57.3039 3.05907C58.489 1.46666 61.2541 1.46666 64.4144 1.46666M2 137.617C3.05341 136.954 6.58232 136.821 9.1105 138.414C12.2707 140.404 16.221 142.395 20.1713 142.793C24.1215 143.191 32.4505 140.37 33.6022 139.21C34.7873 138.016 38.3425 137.617 41.5028 137.617M41.5028 137.617C43.0829 137.617 46.8751 136.821 49.4033 138.413C52.5635 140.404 56.1188 142.793 60.0691 143.191C64.0193 143.589 71.7497 140.12 73.105 139.21C74.2901 138.414 78.6354 137.617 81.7956 137.617M41.5028 137.617L65.2044 1.46666C66.2578 0.803162 68.9967 0.670461 71.5249 2.26287C74.6851 4.25338 79.0304 7.04024 82.9807 7.43834C86.9309 7.83644 95.6549 5.01593 96.8066 3.85527C98.3867 2.26287 101.547 1.46666 104.707 1.46666L81.7956 137.617M81.7956 137.617C83.3757 137.219 86.3779 136.821 88.9061 138.413C92.0663 140.404 96.4116 142.395 100.362 142.793C104.312 143.191 112.246 140.37 113.398 139.21C114.978 137.617 118.138 137.617 121.298 137.617M11.6703 88.2531C12.7237 87.5896 16.063 87.4566 18.5912 89.049C21.7514 91.0395 25.7017 93.0301 29.6519 93.4282C33.6022 93.8263 41.9311 91.0058 43.0829 89.8452C44.268 88.651 47.8232 88.2528 50.9834 88.2528C52.5635 88.2528 56.3558 87.4565 58.884 89.0489C62.0442 91.0394 65.5994 93.4282 69.5497 93.8263C73.5 94.2244 81.2303 90.7554 82.5856 89.8451C83.7707 89.0491 88.116 88.2527 91.2762 88.2527C92.8564 87.8548 95.8586 87.4565 98.3867 89.0489C101.547 91.0394 105.892 93.0301 109.843 93.4282C113.793 93.8263 121.727 91.0057 122.878 89.8451C124.459 88.2527 127.244 88.2531 130.404 88.2531M12.2707 84.8912C13.3241 84.2277 16.063 84.2718 18.5912 85.8642C21.7514 87.8547 25.7017 89.8453 29.6519 90.2434C33.6022 90.6415 41.9311 87.821 43.0829 86.6604C44.268 85.4662 47.8232 85.068 50.9834 85.068C52.5635 85.068 56.3558 84.2717 58.884 85.8641C62.0442 87.8546 65.5994 90.2434 69.5497 90.6415C73.5 91.0396 81.2303 87.5706 82.5856 86.6603C83.7707 85.8643 88.116 85.0679 91.2762 85.0679C92.8564 84.67 95.8586 84.2717 98.3867 85.8641C101.547 87.8546 105.892 89.8453 109.843 90.2434C113.793 90.6415 121.727 87.8209 122.878 86.6603C124.459 85.0679 127.779 85.0683 130.94 85.0683M19.634 43.6657C20.6874 43.0022 23.9622 42.8692 26.4904 44.4616C29.6506 46.4521 33.6009 48.4427 37.5511 48.8408C41.5014 49.2389 49.8303 46.4184 50.9821 45.2578C52.1672 44.0636 55.7224 43.6654 58.8826 43.6654C60.4628 43.6654 64.255 42.869 66.7832 44.4614C69.9434 46.452 73.4987 48.8408 77.4489 49.2389C81.3992 49.637 89.1295 46.168 90.4849 45.2577C91.6699 44.4617 96.0152 43.6652 99.1755 43.6652C100.756 43.2674 103.758 42.869 106.286 44.4614C109.446 46.452 113.791 48.4427 117.742 48.8408C121.692 49.2389 129.626 46.4183 130.778 45.2577C132.357 43.6656 134.744 43.6658 137.903 43.6658M20.2294 40.3325C21.2828 39.669 23.9622 39.6844 26.4904 41.2768C29.6506 43.2673 33.6009 45.2579 37.5511 45.656C41.5014 46.0541 49.8303 43.2336 50.9821 42.073C52.1672 40.8788 55.7224 40.4806 58.8826 40.4806C60.4628 40.4806 64.255 39.6842 66.7832 41.2766C69.9434 43.2672 73.4987 45.656 77.4489 46.0541C81.3992 46.4522 89.1295 42.9831 90.4849 42.0728C91.6699 41.2769 96.0152 40.4804 99.1755 40.4804C100.756 40.0826 103.758 39.6842 106.286 41.2766C109.446 43.2672 113.791 45.2579 117.742 45.656C121.692 46.0541 129.626 43.2335 130.778 42.0728C132.357 40.4808 135.279 40.4808 138.439 40.4808" stroke="#DFBC82" stroke-width="2"/>
</svg>
