<svg width="22" height="22" viewBox="0 0 22 22" fill="none" xmlns="http://www.w3.org/2000/svg">
<path d="M16.4286 13.9261L16.0752 13.5724L16.4286 13.9261ZM16.8205 1.55629L16.4047 1.27862L16.8205 1.55629ZM17.8399 1.16365L17.6959 1.64245L17.8399 1.16365ZM14.4058 6.08189L13.9587 6.30579L14.4058 6.08189ZM14.4683 5.07876L14.0525 4.80109L14.4683 5.07876ZM15.1579 9.11363L14.8046 8.75979L15.1579 9.11363ZM15.3455 7.95814L14.8984 8.18204L15.3455 7.95814ZM8.17035 15.1254L7.94704 15.5728L8.17035 15.1254ZM9.3235 14.9384L9.67677 15.2922L9.3235 14.9384ZM5.28547 14.2471L5.00843 13.8309L5.28547 14.2471ZM6.28616 14.1849L6.50948 13.7375L6.28616 14.1849ZM1.41924 16.8204L1.1422 16.4042L1.41924 16.8204ZM1.09283 17.2121L0.621934 17.044L1.09283 17.2121ZM1.69627 17.2366L5.5625 14.6634L5.00843 13.8309L1.1422 16.4042L1.69627 17.2366ZM6.06285 14.6322L7.94704 15.5728L8.39367 14.6781L6.50948 13.7375L6.06285 14.6322ZM9.67677 15.2922L15.5111 9.46747L14.8046 8.75979L8.97024 14.5846L9.67677 15.2922ZM15.7925 7.73424L14.8529 5.85799L13.9587 6.30579L14.8984 8.18204L15.7925 7.73424ZM14.8841 5.35643L17.2363 1.83395L16.4047 1.27862L14.0525 4.80109L14.8841 5.35643ZM17.6959 1.64245C18.3279 1.8326 19.0562 2.14263 19.6153 2.569C20.176 2.99659 20.5 3.48585 20.5 4.04144H21.5C21.5 3.04742 20.9087 2.29776 20.2217 1.77384C19.5331 1.24871 18.6813 0.894649 17.9839 0.684845L17.6959 1.64245ZM20.5 4.04144C20.5 5.06994 19.9668 6.88914 19.1147 8.77819C18.2679 10.6554 17.1548 12.4937 16.0752 13.5724L16.782 14.2798C17.9854 13.0775 19.1581 11.1139 20.0262 9.18938C20.889 7.27662 21.5 5.29402 21.5 4.04144H20.5ZM16.0752 13.5724C15.1307 14.516 12.6827 16.586 10.1905 18.2277C8.94356 19.049 7.70903 19.7474 6.66106 20.1472C6.13673 20.3472 5.68055 20.4641 5.30605 20.493C4.92974 20.522 4.681 20.4592 4.5216 20.3531L3.96753 21.1856C4.37933 21.4597 4.87909 21.5288 5.38291 21.49C5.88853 21.451 6.44411 21.3003 7.01749 21.0815C8.16495 20.6438 9.46968 19.8999 10.7406 19.0628C13.2839 17.3875 15.7854 15.2755 16.782 14.2798L16.0752 13.5724ZM4.5216 20.3531C3.40558 19.6103 2.55681 19.0994 2.01759 18.5969C1.7568 18.3539 1.61231 18.1502 1.54625 17.9692C1.48594 17.8039 1.47755 17.6216 1.56373 17.3802L0.621934 17.044C0.464984 17.4837 0.459115 17.9071 0.606821 18.3119C0.748781 18.701 1.01779 19.0321 1.33584 19.3285C1.9543 19.9048 2.92453 20.4914 3.96753 21.1856L4.5216 20.3531ZM17.2363 1.83395C17.3542 1.65731 17.5439 1.59673 17.6959 1.64245L17.9839 0.684845C17.3606 0.497313 16.7363 0.781931 16.4047 1.27862L17.2363 1.83395ZM14.8529 5.85799C14.7724 5.69733 14.7843 5.50585 14.8841 5.35643L14.0525 4.80109C13.7531 5.24938 13.7173 5.82382 13.9587 6.30579L14.8529 5.85799ZM15.5111 9.46747C15.9686 9.01073 16.082 8.31226 15.7925 7.73424L14.8984 8.18204C14.9949 8.37472 14.9571 8.60754 14.8046 8.75979L15.5111 9.46747ZM7.94704 15.5728C8.52398 15.8608 9.22043 15.7478 9.67677 15.2922L8.97024 14.5846C8.81813 14.7364 8.58598 14.7741 8.39367 14.6781L7.94704 15.5728ZM5.5625 14.6634C5.71166 14.5641 5.90254 14.5522 6.06285 14.6322L6.50948 13.7375C6.02854 13.4975 5.45591 13.5331 5.00843 13.8309L5.5625 14.6634ZM1.1422 16.4042C0.936765 16.5409 0.726879 16.75 0.621934 17.044L1.56373 17.3802C1.57582 17.3463 1.61191 17.2928 1.69627 17.2366L1.1422 16.4042Z" fill="#DFBC82"/>
</svg>
