<svg width="20" height="20" viewBox="0 0 20 20" fill="none" xmlns="http://www.w3.org/2000/svg">
<path d="M4.28547 13.2471L0.419237 15.8204C0.274336 15.9168 0.151349 16.0482 0.0928314 16.2121C-0.393429 17.5743 1.08554 18.3324 3.24456 19.7694C5.52939 21.2901 13.4876 14.8654 15.4286 12.9261C17.7116 10.645 20 5.32252 20 3.04144C20 1.49183 18.1694 0.563603 16.8399 0.163648C16.4522 0.047023 16.0453 0.219619 15.8205 0.556289L13.4683 4.07876C13.2687 4.37762 13.2449 4.76057 13.4058 5.08189L14.3455 6.95814C14.5385 7.34349 14.4629 7.80914 14.1579 8.11363L8.3235 13.9384C8.01928 14.2421 7.55498 14.3174 7.17035 14.1254L5.28616 13.1849C4.96554 13.0248 4.58378 13.0486 4.28547 13.2471Z" fill="#DFBC82"/>
</svg>
