<svg width="35" height="35" viewBox="0 0 35 35" fill="none" xmlns="http://www.w3.org/2000/svg">
<rect width="35" height="35" fill="black" fill-opacity="0"/>
<path d="M1.41318 22.1963L15.9495 7.68026L27.5812 7.423L27.3168 19.0662L12.7807 33.5821L1.41318 22.1963Z" stroke="#DFBC82" stroke-width="2"/>
<path d="M23.8376 13.1229C23.8376 14.1544 23.0018 14.99 21.9716 14.99C20.9413 14.99 20.1055 14.1544 20.1055 13.1229C20.1055 12.0914 20.9413 11.2559 21.9716 11.2559C23.0018 11.2559 23.8376 12.0914 23.8376 13.1229Z" stroke="#DFBC82" stroke-width="2"/>
<path d="M12.2038 24.6435L10.4354 22.9426L9.03966 24.3948L8.0314 23.425L9.42715 21.9729L8.33443 20.9219L9.13635 20.0876L10.2291 21.1385L10.9244 20.4151L9.83168 19.3641L10.6285 18.5351L11.7212 19.5861L15.4212 15.7365L18.256 18.463C19.0795 19.2551 19.5309 20.0924 19.6104 20.975C19.6899 21.8577 19.3862 22.6563 18.6993 23.371C17.9786 24.1208 17.1897 24.4765 16.3327 24.4381C15.4826 24.3995 14.63 23.9724 13.775 23.1568L11.9327 21.3849L11.2373 22.1083L13.0057 23.8092L12.2038 24.6435ZM12.7295 20.5558L14.556 22.3125C15.1014 22.8372 15.6402 23.1081 16.1723 23.1253C16.7043 23.1425 17.2072 22.9046 17.6809 22.4118C18.1106 21.9647 18.3097 21.4617 18.278 20.9028C18.2497 20.3403 17.9856 19.8154 17.4857 19.3278L15.6276 17.5406L12.7295 20.5558Z" fill="#DFBC82"/>
</svg>
