<?xml version="1.0" encoding="utf-8"?>
<!-- Generator: Adobe Illustrator 22.1.0, SVG Export Plug-In . SVG Version: 6.00 Build 0)  -->
<svg version="1.1" id="Слой_1" xmlns="http://www.w3.org/2000/svg" xmlns:xlink="http://www.w3.org/1999/xlink" x="0px" y="0px"
	 viewBox="0 0 14.6 13.5" style="enable-background:new 0 0 14.6 13.5;" xml:space="preserve">
<style type="text/css">
	.st0{fill:#DFBC82;stroke:#DFBC82;stroke-width:2;}
</style>
<path class="st0" d="M5.9,10.1c0,1.4-1.1,2.4-2.3,2.4c-1.2,0-2.3-0.9-2.6-2.4c0,0,0-0.1,0-0.2c0,0,0-0.1,0-0.2C1,8.4,0.7,4.1,4.3,1
	c0,0,0.1,0,0.2,0c0.1,0,0.2,0,0.3,0.1c0.1,0,0.1,0.1,0.2,0.1c0,0,0,0,0,0c0,0,0,0,0,0l0,0l0,0c0,0,0,0,0,0c0,0,0,0,0,0.1
	c0,0.1-0.1,0.3-0.3,0.6C3.7,2.9,3.1,4.1,2.7,5C2.6,5.5,2.5,5.9,2.5,6.3c0,0.2,0,0.5,0.1,0.7C2.7,7.2,2.8,7.4,3,7.5
	c0.2,0.2,0.4,0.2,0.7,0.2C4.8,7.7,5.9,8.8,5.9,10.1z"/>
<path class="st0" d="M13.6,10.1c0,1.4-1.1,2.4-2.3,2.4c-1.2,0-2.3-0.9-2.6-2.4c0,0,0-0.1,0-0.2c0,0,0-0.1,0-0.2
	C8.6,8.4,8.3,4.1,12,1c0,0,0.1,0,0.2,0c0.1,0,0.2,0,0.3,0.1c0.1,0,0.1,0.1,0.2,0.1c0,0,0,0,0,0c0,0,0,0,0,0l0,0l0,0c0,0,0,0,0,0
	c0,0,0,0,0,0.1c0,0.1-0.1,0.3-0.3,0.6c-0.9,1-1.6,2.2-1.9,3.1c-0.2,0.5-0.3,0.9-0.3,1.3c0,0.2,0,0.5,0.1,0.7
	c0.1,0.1,0.2,0.3,0.4,0.5c0.2,0.2,0.4,0.2,0.7,0.2C12.5,7.7,13.6,8.8,13.6,10.1z"/>
</svg>
