<svg width="219" height="119" viewBox="0 0 219 119" fill="none" xmlns="http://www.w3.org/2000/svg">
<path d="M36.0871 74.3396L33.9355 83.4076C33.6146 84.7601 32.4066 85.715 31.0166 85.715H4.51308C2.66887 85.715 1.25897 84.0818 1.54111 82.2593C5.01763 59.8022 10.2046 21.6962 11.1168 9.06533C11.2361 7.41278 12.5998 6.08503 14.2567 6.08665C24.3632 6.09657 33.4353 6.3575 43.1045 10.9623M36.0871 74.3396C39.9736 64.3726 43.1045 28.2963 43.1045 10.9623M36.0871 74.3396L94.7463 115.382C94.8655 115.466 94.9863 115.539 95.1172 115.602C101.272 118.583 115.178 120.35 119.083 111.138C119.6 109.917 118.956 108.563 117.801 107.912C106.556 101.565 104.188 99.4516 96.005 93.8403C108.42 101.966 127.853 118.65 136.49 109.549C145.127 100.449 126.774 93.8403 109.5 80.2981C122.139 89.507 143.4 108.791 153.764 97.0904C160.241 89.7776 144.587 82.4651 126.774 70.0061C144.587 82.4651 164.02 100.882 171.577 80.2981M43.1045 10.9623C59.4784 7.89273 71.1741 7.17067 78.1915 10.9623M171.577 80.2981C163.615 63.786 127.989 44.1309 107.814 31.634C107.156 31.2268 106.378 31.093 105.622 31.2512L95.1475 33.441C94.3186 33.6143 93.6058 34.1302 93.1615 34.8511C89.2578 41.1855 81.3285 51.4612 72.7935 49.422C61.4577 46.7136 64.1567 20.171 78.1915 10.9623M171.577 80.2981L182.373 70.0061M78.1915 10.9623C83.2297 5.72599 94.9254 -3.32258 126.774 3.37867C150.54 8.37933 165.006 14.0345 170.85 17.3889C171.967 18.0296 173.368 18.0515 174.426 17.3171L176.165 16.1084M182.373 70.0061L187.127 85.749C187.51 87.0153 188.676 87.8818 189.999 87.8818H214.55C216.372 87.8818 217.774 86.2698 217.52 84.4648L207.601 13.7926C207.379 12.2077 205.952 11.0766 204.358 11.2219L179.097 13.5264C178.108 13.6167 177.227 14.1914 176.745 15.061L176.165 16.1084M182.373 70.0061C179.134 59.7141 174.222 34.5257 176.165 16.1084" stroke="#DFBC82" stroke-width="2" stroke-linejoin="round"/>
<circle cx="13.5" cy="74.5" r="3.5" stroke="#DFBC82" stroke-width="2"/>
<circle cx="204.5" cy="76.5" r="3.5" stroke="#DFBC82" stroke-width="2"/>
</svg>
