<svg width="91" height="70" viewBox="0 0 91 70" fill="none" xmlns="http://www.w3.org/2000/svg">
<path d="M1 68.5H6M89.5 68.5H84M84 68.5V32H57H88V5.5H33.5M84 68.5H79.5M33.5 5.5L53 24V30.5L49 26.6633M33.5 5.5L28.5 1L14.5 13.6275M14.5 13.6275V5.5H6V21.2941M14.5 13.6275L6 21.2941M6 21.2941L3 24V30.5L6 27.7353M6 27.7353L28.5 7L49 26.6633M6 27.7353V68.5M6 68.5H13M49 68.5V26.6633M49 68.5H43M49 68.5H54.5M43 68.5H13M43 68.5V61.5M13 68.5V61.5M13 61.5H43M13 61.5V55.5M43 61.5V55.5M43 55.5H13M43 55.5V49.5M13 55.5V49.5M13 49.5H43M13 49.5V42.75M43 49.5V42.75M43 42.75V36H13V42.75M43 42.75H13M65.75 54H74.5V37.5H65.75M65.75 54H57V37.5H65.75M65.75 54V37.5M54.5 68.5C56.1667 65.6667 60.3 59.9 63.5 59.5C66.7 59.1 70.1667 60.6667 71.5 61.5C73.3333 61 75.4636 61.1563 77 63C79.5 66 82 68.5 79.5 68.5M54.5 68.5H79.5" stroke="#DFBC82" stroke-width="2" stroke-linecap="round" stroke-linejoin="round"/>
</svg>
