<svg width="98" height="98" viewBox="0 0 98 98" fill="none" xmlns="http://www.w3.org/2000/svg">
<rect width="96" height="97.9993" fill="black" fill-opacity="0" transform="translate(1)"/>
<path d="M13.7344 96.9992V66.1107L49.001 43.7668L84.2677 66.1107V96.9992H13.7344Z" stroke="white" stroke-width="2"/>
<path d="M1 65.1991L49 34.4746L97 65.1991" stroke="white" stroke-width="2"/>
<path d="M25.5742 49.7607V36.876H31.0824V45.4069" stroke="white" stroke-width="2"/>
<rect x="57.0977" y="77.6719" width="11.7705" height="19.3273" stroke="white" stroke-width="2"/>
<path d="M37.5703 14.8887C37.5703 22.5523 31.3093 28.7775 23.5703 28.7775C15.8313 28.7775 9.57031 22.5523 9.57031 14.8887C9.57031 7.22521 15.8313 1 23.5703 1C31.3093 1 37.5703 7.22521 37.5703 14.8887Z" stroke="white" stroke-width="2"/>
<path d="M22 14.9199C22 17.1016 20.2162 18.8829 18 18.8829C15.7838 18.8829 14 17.1016 14 14.9199C14 12.7383 15.7838 10.957 18 10.957C20.2162 10.957 22 12.7383 22 14.9199Z" stroke="white" stroke-width="2"/>
<rect x="38" y="10.957" width="52" height="7.92583" stroke="white" stroke-width="2"/>
<rect x="75" y="19.585" width="2" height="6.94808" fill="white"/>
<rect x="80" y="19.585" width="2" height="6.94808" fill="white"/>
<rect x="85" y="19.585" width="2" height="6.94808" fill="white"/>
</svg>
