<svg width="98" height="95" viewBox="0 0 98 95" fill="none" xmlns="http://www.w3.org/2000/svg">
<rect width="94" height="96" fill="black" fill-opacity="0" transform="translate(97) rotate(90)"/>
<path d="M97 56.7744H98V55.7744H97V56.7744ZM97 93.9997V94.9997H98V93.9997H97ZM1 93.9997H0V94.9997H1V93.9997ZM1 56.7744V55.7744H0V56.7744H1ZM79.6981 68.9296C79.6981 69.4819 80.1458 69.9296 80.6981 69.9296C81.2504 69.9296 81.6981 69.4819 81.6981 68.9296H79.6981ZM67.0189 68.9296C67.0189 69.4819 67.4666 69.9296 68.0189 69.9296C68.5712 69.9296 69.0189 69.4819 69.0189 68.9296H67.0189ZM54.9434 68.9296C54.9434 69.4819 55.3911 69.9296 55.9434 69.9296C56.4957 69.9296 56.9434 69.4819 56.9434 68.9296H54.9434ZM42.2641 68.9296C42.2641 69.4819 42.7119 69.9296 43.2641 69.9296C43.8164 69.9296 44.2641 69.4819 44.2641 68.9296H42.2641ZM29.5849 68.9296C29.5849 69.4819 30.0326 69.9296 30.5849 69.9296C31.1372 69.9296 31.5849 69.4819 31.5849 68.9296H29.5849ZM16.9057 68.9296C16.9057 69.4819 17.3534 69.9296 17.9057 69.9296C18.4579 69.9296 18.9057 69.4819 18.9057 68.9296H16.9057ZM96 56.7744V93.9997H98V56.7744H96ZM97 92.9997H1V94.9997H97V92.9997ZM2 93.9997V56.7744H0V93.9997H2ZM80.6981 57.7744H97V55.7744H80.6981V57.7744ZM79.6981 56.7744V68.9296H81.6981V56.7744H79.6981ZM68.0189 57.7744H80.6981V55.7744H68.0189V57.7744ZM67.0189 56.7744V68.9296H69.0189V56.7744H67.0189ZM55.9434 57.7744H68.0189V55.7744H55.9434V57.7744ZM54.9434 56.7744V68.9296H56.9434V56.7744H54.9434ZM43.2641 57.7744H55.9434V55.7744H43.2641V57.7744ZM42.2641 56.7744V68.9296H44.2641V56.7744H42.2641ZM30.5849 57.7744L43.2641 57.7744V55.7744L30.5849 55.7744V57.7744ZM29.5849 56.7744V68.9296H31.5849V56.7744H29.5849ZM1 57.7744H17.9057V55.7744H1V57.7744ZM17.9057 57.7744H30.5849V55.7744H17.9057V57.7744ZM16.9057 56.7744V68.9296H18.9057V56.7744H16.9057Z" fill="white"/>
<path d="M72.2105 1V17V33L27.2105 33H18.1316H13C8.02943 33 4 28.9706 4 24V10C4 5.02944 8.02943 1 13 1L18.1316 1L27.2105 1L72.2105 1Z" stroke="white" stroke-width="2"/>
<path d="M72.6053 32.8443L93.8461 17.8166C94.4094 17.4181 94.4094 16.5824 93.8461 16.1839L72.6053 1.15625" stroke="white" stroke-width="2"/>
</svg>
