<svg width="166" height="155" viewBox="0 0 166 155" fill="none" xmlns="http://www.w3.org/2000/svg">
<path d="M1 83C1 37.7127 37.7127 1 83 1C128.287 1 165 37.7127 165 83C165 112.682 149.23 138.681 125.607 153.076C120.335 148.672 105.543 141 83 141C60.4985 141 46.3153 149.006 41.346 153.648C17.1951 139.377 1 113.079 1 83Z" stroke="#DFBC82" stroke-width="2"/>
<mask id="mask0" mask-type="alpha" maskUnits="userSpaceOnUse" x="0" y="0" width="166" height="155">
<path d="M1 83C1 37.7127 37.7127 1 83 1C128.287 1 165 37.7127 165 83C165 112.682 149.23 138.681 125.607 153.076C120.335 148.672 105.543 141 83 141C60.4985 141 46.3153 149.006 41.346 153.648C17.1951 139.377 1 113.079 1 83Z" fill="#C4C4C4" stroke="#DFBC82" stroke-width="2"/>
</mask>
<g mask="url(#mask0)">
<path d="M73.2565 131.282C65.5761 130.295 49.1485 121.414 41.8947 117.097C39.3336 115.604 35.4953 106.612 34.8553 104.762C34.2152 102.912 32.9342 97.361 31.0141 92.427C29.094 87.493 30.3741 72.6911 31.0141 70.8408C31.6541 68.9906 36.1344 54.8053 37.4145 51.7216C38.6946 48.6378 45.735 41.2368 47.015 39.3866C48.0391 37.9064 57.2556 33.4247 61.7359 31.3689C65.5761 29.7242 74.4086 26.5582 79.0169 27.0516C84.7772 27.6684 96.2979 33.8359 99.4981 35.0694C102.698 36.3028 115.499 45.5541 121.259 49.8713C127.02 54.1886 128.3 63.4398 127.66 68.3738C127.02 73.3078 130.22 91.1935 130.86 94.894C131.5 98.5945 130.22 108.463 121.259 117.097C112.299 125.731 109.099 125.114 99.4981 130.048C89.8975 134.982 82.8571 132.515 73.2565 131.282Z" stroke="#DFBC82" stroke-width="2"/>
<path d="M41.1122 137.383C35.289 133.73 26.1473 124.062 22.3043 119.685C18.0591 109.979 15.6299 97.9887 13.8093 91.7079C11.9887 85.4272 13.8071 73.4366 13.8064 67.1558C13.8056 60.875 19.2636 47.7418 20.4764 43.7446C21.6891 39.7475 27.7541 30.0403 31.3933 26.043C35.0325 22.0457 50.8036 15.1921 57.4762 13.4783C64.1487 11.7646 76.281 11.7632 84.167 12.3332C92.053 12.9033 99.9393 15.7573 109.039 19.182C118.139 22.6067 127.238 31.1706 134.519 37.4505C141.8 43.7304 144.226 52.8659 147.26 59.1463C150.294 65.4268 150.901 69.9946 153.329 85.4108C155.758 100.827 150.906 107.108 148.48 114.531C146.054 121.955 137.563 129.949 136.35 132.233C135.139 134.514 132.113 137.364 128.482 140.783L128.465 140.799C124.827 144.225 116.94 148.223 112.087 149.937C107.235 151.65 96.3159 153.364 87.8234 153.936C79.3309 154.508 66.5907 151.084 63.5584 149.942C60.5261 148.801 48.3912 141.95 41.1122 137.383Z" stroke="#DFBC82" stroke-width="2"/>
<path d="M79.1054 79.8888C79.1054 79.4781 79.0099 79.2323 78.8865 79.073C78.7611 78.9113 78.563 78.7821 78.2533 78.6877C77.6338 78.4988 76.7656 78.4993 75.6783 78.4999C75.6153 78.5 75.5515 78.5 75.487 78.5C74.4066 78.5 74.0031 78.7483 73.8063 79.0428C73.6941 79.2107 73.6129 79.4441 73.5633 79.7779C73.5136 80.1123 73.5 80.5138 73.5 81C73.5 81.486 73.5136 81.8897 73.5634 82.2272C73.6131 82.5642 73.6946 82.8023 73.8081 82.9746C74.0067 83.2761 74.4111 83.5293 75.487 83.5293C76.4604 83.5293 77.3649 83.0618 78.0354 82.351C78.7092 81.6366 79.1054 80.7196 79.1054 79.8888Z" fill="#DFBC82" stroke="#DFBC82"/>
<path d="M68.0803 87.5772C66.415 85.9148 67.0395 81.3432 67.5599 78.7457C67.5599 76.6672 66.8323 73.4462 68.0803 70.9526C69.3284 68.459 73.1114 68.8746 74.8469 69.3941C78.6634 70.6063 85.2553 72.5115 86.2962 74.0696C87.4513 75.7988 86.9901 79.611 86.2962 81.8622C84.9084 84.2867 82.1328 89.5513 77.9695 91.2138C71.7244 93.7075 70.162 89.6553 68.0803 87.5772Z" stroke="#DFBC82" stroke-width="2"/>
<path d="M77.4108 100.532C72.9083 102.409 67.6138 98.1864 65.5294 95.8405C65.5294 93.4943 59.9013 86.4573 58.6507 84.6979C57.4 82.9385 58.0253 81.179 59.9013 75.9008C61.7774 70.6225 61.152 69.4496 63.6534 65.3442C65.6544 62.06 71.1574 61.2389 73.6587 61.2389C77.2023 60.848 84.5396 60.6525 85.5401 62.9984C86.7908 65.9307 89.2922 67.6901 89.9175 68.2766C90.5428 68.8631 95.5455 68.2766 97.4215 74.1414C99.2975 80.0061 96.1709 83.5249 94.2949 84.1114C92.4188 84.6979 90.5428 87.6302 89.9175 91.1491C89.4172 93.9642 86.7908 96.2318 85.5401 97.0138C84.7064 97.4047 81.9132 98.6556 77.4108 100.532Z" stroke="#DFBC82" stroke-width="2"/>
<path d="M73.4894 109.801C62.0099 107.726 54.7914 93.8126 52.6172 87.1147C51.9182 85.1706 50.6604 68.9652 56.5307 64.4279C62.401 59.8906 67.6191 54.7052 70.8804 51.4642L70.8804 51.4642C74.1417 48.2233 82.1884 51.1423 83.2733 52.7606C84.5772 54.7057 93.7094 59.2424 95.6662 59.8906C97.623 60.5388 104.145 61.1875 106.102 65.7242C108.976 72.3848 104.146 77.3915 102.841 85.8179C101.537 94.2443 101.536 93.5967 96.3179 100.727C91.0998 107.857 85.2301 105.264 83.2733 105.912C81.3165 106.56 80.0114 110.98 73.4894 109.801Z" stroke="#DFBC82" stroke-width="2"/>
<path d="M58.8449 109.846C51.4476 106.486 47.5435 96.0455 46.5161 91.2453C43.4339 86.4455 44.0503 77.444 44.0503 75.0439C44.0503 72.6438 44.6311 70.7551 49.5983 64.8434C55.1441 58.243 56.9956 52.8427 56.9956 51.6426C56.9956 50.4426 69.3244 42.6422 78.571 42.0421C87.8176 41.4421 92.1327 47.4424 93.982 48.0424C95.8313 48.6425 106.927 59.4431 108.777 60.6431C110.626 61.8432 114.325 69.0436 114.941 78.6441C115.557 88.2446 111.242 94.845 106.927 101.445C102.612 108.046 93.982 111.646 81.0367 114.047C68.0915 116.447 68.0915 114.047 58.8449 109.846Z" stroke="#DFBC82" stroke-width="2"/>
<path d="M77.1619 124.632C70.4945 126.109 65.8359 122.786 64.34 120.94C62.6304 119.094 58.5701 115.525 56.0057 116.017C52.8002 116.632 48.3126 113.556 45.1071 109.863C41.9017 106.171 40.6195 96.9408 39.3373 93.8639C38.0551 90.7871 38.6963 80.3259 38.0552 76.0183C37.4141 71.7108 42.5428 60.6342 43.825 57.5574C45.1072 54.4805 48.9538 46.4808 52.1592 43.404C55.3647 40.3271 64.34 38.481 70.7509 36.0196C77.1619 33.5581 81.6495 36.0196 90.6248 38.481C99.6001 40.9425 99.6001 46.4808 106.011 48.9423C112.422 51.4037 112.422 56.942 118.833 64.9418C125.244 72.9415 122.679 87.0949 121.397 95.71C120.115 104.325 116.269 108.017 109.858 113.556C103.447 119.094 85.4961 122.786 77.1619 124.632Z" stroke="#DFBC82" stroke-width="2"/>
</g>
</svg>
