<svg width="153" height="136" viewBox="0 0 153 136" fill="none" xmlns="http://www.w3.org/2000/svg">
<mask id="mask0" mask-type="alpha" maskUnits="userSpaceOnUse" x="0" y="0" width="153" height="136">
<path d="M152 126.638L145.456 134.491L138.73 127.316L138.433 127H138H132.5H131.946L131.652 127.47L126.946 135H96.193L93.4363 127.649L93.193 127H92.5H62H61.4152L61.1284 127.51L56.9152 135H27.5849L23.3716 127.51L23.0848 127H22.5H13.5H13L12.7 127.4L7.4587 134.388L1 126.638V12.4491L13.8802 1H22.0601L27.2628 6.67572L27.5601 7H28H58H58.5L58.8 6.6L63 1H91.882L94.6056 6.44721L94.882 7H95.5H127.5H127.968L128.268 6.64018L132.968 1H139.609L152 12.4378V126.638Z" fill="#C4C4C4" stroke="white" stroke-width="2"/>
</mask>
<g mask="url(#mask0)">
<path d="M67.3959 14.9451C58.803 16.0623 40.4236 26.1165 32.308 31.0039C29.4426 32.6938 25.1482 42.8729 24.4321 44.9675C23.7161 47.0621 22.2828 53.346 20.1346 58.9316C17.9864 64.5173 19.4185 81.2743 20.1346 83.3689C20.8507 85.4635 25.8632 101.522 27.2954 105.013C28.7276 108.504 36.6045 116.883 38.0366 118.977C39.1824 120.653 49.4939 125.727 54.5065 128.054C58.803 129.916 68.6849 133.5 73.8407 132.942C80.2854 132.243 93.1748 125.261 96.7552 123.865C100.336 122.468 114.657 111.995 121.102 107.108C127.547 102.22 128.979 91.7474 128.263 86.1617C127.547 80.5761 131.127 60.3281 131.843 56.1388C132.559 51.9496 131.127 40.7783 121.102 31.0039C111.077 21.2295 107.496 21.9272 96.7552 16.3416C86.014 10.7559 78.1371 13.5487 67.3959 14.9451Z" stroke="#DFBC82" stroke-width="2"/>
<path d="M34.2978 8.72806C27.8138 12.8453 17.6353 23.7389 13.3565 28.671C8.63061 39.6076 5.92713 53.1171 3.90065 60.1937C1.87418 67.2704 3.90065 80.7799 3.90065 87.8564C3.90065 94.933 9.98007 109.729 11.3311 114.233C12.682 118.736 19.4369 129.672 23.4899 134.176C27.5428 138.679 45.1056 146.399 52.536 148.329C59.9664 150.259 73.4762 150.259 82.2576 149.615C91.039 148.972 99.8204 145.755 109.953 141.896C120.085 138.036 130.216 128.386 138.323 121.309C146.43 114.233 149.131 103.939 152.509 96.8629C155.886 89.7864 156.562 84.6398 159.264 67.2701C161.966 49.9005 156.562 42.8239 153.86 34.4608C151.158 26.0976 141.701 17.0911 140.35 14.5178C138.999 11.9445 136.627 9.72806 132.575 5.868C128.523 2.00795 118.734 -3.49517 113.33 -5.425C107.926 -7.35483 95.7674 -9.28493 86.3106 -9.92825C76.8537 -10.5716 62.6674 -6.71164 59.2909 -5.425C55.9145 -4.13836 42.4026 3.58149 34.2978 8.72806Z" stroke="#DFBC82" stroke-width="2"/>
<path d="M76.7177 72.0788C76.7177 73.8556 75.01 75.4215 72.736 75.4215C71.6207 75.4215 70.7981 75.0376 70.2521 74.4543C69.7012 73.8658 69.3945 73.034 69.3945 72.0788C69.3945 71.1165 69.7064 70.1046 70.285 69.3442C70.8556 68.5942 71.6767 68.0957 72.736 68.0957C73.8106 68.0957 74.8062 68.6091 75.5422 69.3854C76.2816 70.1654 76.7177 71.1678 76.7177 72.0788Z" fill="#DFBC82" stroke="#DFBC82"/>
<path d="M62.7705 62.6741C60.7217 64.7235 61.49 70.3595 62.1302 73.5617C62.1302 76.1241 61.235 80.0949 62.7705 83.1691C64.3059 86.2432 68.96 85.7309 71.0951 85.0904C75.7902 83.596 83.9 81.2473 85.1804 79.3264C86.6015 77.1946 86.0341 72.4949 85.1804 69.7196C83.4731 66.7307 80.0585 60.2405 74.9365 58.1909C67.2536 55.1166 65.3315 60.1123 62.7705 62.6741Z" stroke="#DFBC82" stroke-width="2"/>
<path d="M73.3224 47.5378C68.1446 45.3796 62.0559 50.2356 59.6588 52.9334C59.6588 55.6315 53.1865 63.7241 51.7483 65.7474C50.31 67.7708 51.0291 69.7941 53.1865 75.8641C55.344 81.9341 54.6248 83.283 57.5014 88.0041C59.8026 91.781 66.131 92.7252 69.0076 92.7252C73.0827 93.1749 81.5205 93.3997 82.6712 90.7019C84.1094 87.3297 86.986 85.3063 87.7051 84.6319C88.4243 83.9574 94.1774 84.6319 96.3348 77.8874C98.4922 71.143 94.8965 67.0963 92.7391 66.4219C90.5817 65.7474 88.4243 62.3752 87.7051 58.3286C87.1298 55.0912 84.1094 52.4834 82.6712 51.5841C81.7123 51.1346 78.5002 49.6961 73.3224 47.5378Z" stroke="#DFBC82" stroke-width="2"/>
<path d="M68.2244 39.2155C55.2838 41.4636 47.1466 56.5364 44.6957 63.7924C43.9078 65.8985 42.4899 83.4544 49.1073 88.3698C55.7248 93.2852 61.6069 98.9027 65.2833 102.414L65.2833 102.414C68.9597 105.925 78.0306 102.763 79.2535 101.009C80.7234 98.9022 91.0179 93.9874 93.2237 93.2852C95.4295 92.583 102.782 91.8802 104.988 86.9654C108.227 79.7498 102.782 74.3259 101.312 65.1973C99.8412 56.0687 99.8405 56.7703 93.9583 49.0461C88.0762 41.3219 81.4594 44.1309 79.2535 43.4287C77.0477 42.7265 75.5765 37.9382 68.2244 39.2155Z" stroke="#DFBC82" stroke-width="2"/>
<path d="M52.0994 39.7185C44.077 43.4469 39.8429 55.0317 38.7287 60.358C35.386 65.6838 36.0546 75.6717 36.0546 78.3348C36.0546 80.998 36.6844 83.0936 42.0714 89.6533C48.0858 96.9769 50.0938 102.969 50.0938 104.301C50.0938 105.632 63.4645 114.287 73.4925 114.953C83.5205 115.619 88.2002 108.961 90.2058 108.295C92.2114 107.63 104.245 95.6454 106.251 94.3138C108.256 92.9822 112.267 84.9927 112.936 74.3401C113.604 63.6875 108.925 56.3638 104.245 49.0401C99.5653 41.7164 90.2058 37.7211 76.1666 35.058C62.1274 32.3948 62.1274 35.058 52.0994 39.7185Z" stroke="#DFBC82" stroke-width="2"/>
<path d="M71.3084 24.4089C63.9351 22.768 58.7832 26.4601 57.1289 28.5114C55.2383 30.5625 50.7481 34.528 47.9122 33.981C44.3673 33.2973 39.4045 36.716 35.8596 40.8184C32.3148 44.9208 30.8968 55.1769 29.4789 58.5956C28.0609 62.0143 28.77 73.6379 28.061 78.4241C27.3521 83.2102 33.0239 95.5176 34.4418 98.9362C35.8597 102.355 40.1136 111.244 43.6585 114.662C47.2033 118.081 57.1289 120.132 64.2187 122.867C71.3084 125.602 76.2712 122.867 86.1968 120.132C96.1225 117.397 96.1225 111.244 103.212 108.509C110.302 105.774 110.302 99.62 117.392 90.7314C124.481 81.8428 121.646 66.1168 120.228 56.5444C118.81 46.972 114.556 42.8696 107.466 36.716C100.376 30.5623 80.5251 26.4601 71.3084 24.4089Z" stroke="#DFBC82" stroke-width="2"/>
<path d="M152 126.638L145.456 134.491L138.73 127.316L138.433 127H138H132.5H131.946L131.652 127.47L126.946 135H96.193L93.4363 127.649L93.193 127H92.5H62H61.4152L61.1284 127.51L56.9152 135H27.5849L23.3716 127.51L23.0848 127H22.5H13.5H13L12.7 127.4L7.4587 134.388L1 126.638V12.4491L13.8802 1H22.0601L27.2628 6.67572L27.5601 7H28H58H58.5L58.8 6.6L63 1H91.882L94.6056 6.44721L94.882 7H95.5H127.5H127.968L128.268 6.64018L132.968 1H139.609L152 12.4378V126.638Z" stroke="#DFBC82" stroke-width="2"/>
</g>
</svg>
