<svg width="223" height="158" viewBox="0 0 223 158" fill="none" xmlns="http://www.w3.org/2000/svg">
<path d="M2 54.0531V60.6608L116 112.947M2 54.0531L103 2L220 52.1652M2 54.0531L124.5 108.802L220 52.1652M220 52.1652V61.1327L132.065 112.578M116 112.947L125.5 116.354L132.065 112.578M116 112.947C118 113.664 119 114.023 122.5 115.576C122.5 119.352 122.5 136.177 122.5 149.392M132.065 112.578C129.603 113.994 130 113.766 127.962 114.938L128.5 144.673M128.5 144.673L132.065 146.089L119 147.976L122.5 149.392M128.5 144.673V148.92M122.5 149.392C122.43 150.377 122.57 151.797 122.5 152.696M122.5 152.696C122.449 153.353 122.55 153.511 122.5 154.112L125.5 156L128.5 154.112V148.92M122.5 152.696L121 151.752L130 149.864L128.5 148.92M53.8825 84.2339L56.5101 86.1218L56.5 121.074M62.5 87.6748V116.354M62.5 116.354L66.0652 117.77L62.5 118.285M62.5 116.354V118.285M62.5 118.285L53 119.658L56.5 121.074M62.5 118.285V120.602M56.5 121.074C56.4576 121.667 56.4916 122.417 56.5101 123.117M56.5101 123.117C56.5224 123.579 56.5278 124.02 56.5 124.378M56.5101 123.117L55 123.434L56.5 124.378M56.5101 123.117L62.5 121.86M56.5 124.378C56.449 125.034 56.5496 125.193 56.5 125.794L59.5 127.681L62.5 125.794V121.86M62.5 121.86L64 121.546L62.5 120.602M62.5 121.86V120.602M7.51014 62.5229L7.5 93.8672M13.5 65.9638V89.1474M13.5 89.1474L17.0652 90.5633L13.5 91.0785M13.5 89.1474V91.0785M13.5 91.0785L4 92.4512L7.5 93.8672M13.5 91.0785V93.3952M7.5 93.8672C7.4576 94.4599 7.49162 95.2105 7.51014 95.9103M7.51014 95.9103C7.52238 96.3727 7.52784 96.8131 7.5 97.171M7.51014 95.9103L6 96.2271L7.5 97.171M7.51014 95.9103L13.5 94.6538M7.5 97.171C7.44895 97.8274 7.54959 97.9862 7.5 98.5869L10.5 100.475L13.5 98.5869V94.6538M13.5 94.6538L15 94.3392L13.5 93.3952M13.5 94.6538V93.3952M106.5 9.21679V32.2322M106.5 32.2322L110.065 33.6482M106.5 32.2322V34.1633M110.065 33.6482L106.5 34.1633M110.065 33.6482L96.5 34.5664L100.5 36.952M106.5 34.1633V36.48M100.5 36.952C100.458 37.5448 100.492 38.2953 100.51 38.9951M100.5 36.952L100.51 9.55162M100.51 38.9951C100.522 39.4576 100.528 39.8979 100.5 40.2558M100.51 38.9951L99 39.3119L100.5 40.2558M100.51 38.9951L106.5 37.7386M100.5 40.2558C100.449 40.9122 100.55 41.071 100.5 41.6717L103.5 43.5597L106.5 41.6717V37.7386M106.5 37.7386L108 37.424L106.5 36.48M106.5 37.7386V36.48M151.575 32.0944L151.565 60.4387M157.565 31.7596V55.7189M157.565 55.7189L161.13 57.1349L157.565 57.6501M157.565 55.7189V57.6501M157.565 57.6501L148.065 59.0228L151.565 60.4387M157.565 57.6501V59.9667M151.565 60.4387C151.523 61.0315 151.557 61.782 151.575 62.4818M151.575 62.4818C151.588 62.9443 151.593 63.3846 151.565 63.7425M151.575 62.4818L150.065 62.7986L151.565 63.7425M151.575 62.4818L157.565 61.2253M151.565 63.7425C151.514 64.3989 151.615 64.5577 151.565 65.1585L154.565 67.0464L157.565 65.1585V61.2253M157.565 61.2253L159.065 60.9107L157.565 59.9667M157.565 61.2253V59.9667M215.5 63.7642V91.4994M215.5 91.4994L219.065 92.9153M215.5 91.4994V93.4305M219.065 92.9153L215.5 93.4305M219.065 92.9153L205.5 93.4305L209.5 96.2191M215.5 93.4305V95.7472M209.5 96.2191C209.458 96.8119 209.492 97.5624 209.51 98.2622M209.5 96.2191L209.51 66.9309M209.51 98.2622C209.522 98.7247 209.528 99.165 209.5 99.523M209.51 98.2622L208 98.579L209.5 99.523M209.51 98.2622L215.5 97.0058M209.5 99.523C209.449 100.179 209.55 100.338 209.5 100.939L212.5 102.827L215.5 100.939V97.0058M215.5 97.0058L217 96.6911L215.5 95.7472M215.5 97.0058V95.7472M124.5 101.723L208 52.6372L154.5 30.6785L69.5 77.6519L124.5 101.723ZM62 74.8201L148.5 27.3746L103 7.66372L15 53.6372L62 74.8201Z" stroke="#DFBC82" stroke-width="2"/>
</svg>
