<svg width="222" height="142" viewBox="0 0 222 142" fill="none" xmlns="http://www.w3.org/2000/svg">
<path d="M10.5 50.19V102L73.5 140M10.5 50.19L71 105.5M10.5 50.19L1 41.5V34.5M73.5 140V105.5H71M73.5 140L209.5 102V72.7508M71 105.5V98.5M71 105.5L209.5 72.7508M220.5 63V70L209.5 72.7508M220.5 63L71 98.5M220.5 63L149.5 2L1 34.5M71 98.5L10.5 43.1857L1 34.5M107.5 113V103.5L119.5 101V110M107.5 113V121.5L119.5 119V110M107.5 113L119.5 110M166.5 98.25V89.5L178 87V95.25M166.5 98.25V107L178 103.5V95.25M166.5 98.25L178 95.25M28 91.25V81.5L40 89.5V98.75M28 91.25V101L40 108V98.75M28 91.25L40 98.75" stroke="#DFBC82" stroke-width="2"/>
</svg>
