<svg width="252" height="156" viewBox="0 0 252 156" fill="none" xmlns="http://www.w3.org/2000/svg">
<path d="M13 88V117L83.5 154M83.5 154V117.3M83.5 154L237.5 112V82.8802M83.5 117.3L80 118M83.5 117.3L237.5 82.8802M80 118L1 83V77M80 118V112M1 77L80 112M1 77L99.5 7M80 112L99.5 7M80 112L250.5 74M99.5 7L152 2L250.5 74M250.5 74V80L237.5 82.8802M40.5 114.75V105.5L51 111V120.25M40.5 114.75V124L51 129.5V120.25M40.5 114.75L51 120.25M118.5 129V120.5L132 117V125.5M118.5 129V137.5L132 134V125.5M118.5 129L132 125.5M187.5 111V102.5L201 99V107.5M187.5 111V119.5L201 116V107.5M187.5 111L201 107.5" stroke="#DFBC82" stroke-width="2"/>
</svg>
