<svg width="209" height="186" viewBox="0 0 209 186" fill="none" xmlns="http://www.w3.org/2000/svg">
<path d="M13 73.6V138.5L95.5 184.5M13 73.6L46 43L95.5 119.5M13 73.6L4 81.5L2 79M95.5 184.5L197 157.5V75M95.5 184.5V119.5M197 75L154 40L95.5 119.5M197 75L205.5 82L207.5 79M2 79L46.5 38M2 79L46.5 14.5L89.0334 22.611M46.5 38L95.5 113.5M46.5 38L89.0334 22.611M95.5 113.5L154 35M95.5 113.5L89.0334 22.611M154 35L207.5 79M154 35L89.0334 22.611M207.5 79L146 2L89.0334 22.611M26.5 80V70L38 76V86M26.5 80V90L38 96V86M26.5 80L38 86M59.5 94V84L71 90V100M59.5 94V104L71 110V100M59.5 94L71 100M59.5 144V134L71 140V150M59.5 144V154L71 160V150M59.5 144L71 150M26.5 126V118L38 124V132M26.5 126V136L38 142V132M26.5 126L38 132M118.5 148.25V138.5L133.5 136V145.5M118.5 148.25V158L133.5 155V145.5M118.5 148.25L133.5 145.5M169.5 134.25V124.5L184.5 122V131.5M169.5 134.25V144L184.5 141V131.5M169.5 134.25L184.5 131.5M144.5 84.25V74.5L159.5 72V81.5M144.5 84.25V94L159.5 91V81.5M144.5 84.25L159.5 81.5" stroke="#DFBC82" stroke-width="2"/>
</svg>
