<svg width="115" height="102" viewBox="0 0 115 102" fill="none" xmlns="http://www.w3.org/2000/svg">
<path d="M80.6436 16.7636H97.3423V101H19.1777V1H79.6436V15.7636V16.7636H80.6436Z" stroke="white" stroke-width="2"/>
<path d="M42.9062 35.2363V42.6545M42.9062 35.2363L30.9336 42.6545L42.9062 50.0727M42.9062 35.2363H97.5639M42.9062 50.0727V42.6545M42.9062 50.0727H97.5639M42.9062 42.6545H97.5639M97.5639 42.6545V35.2363M97.5639 42.6545V50.0727M97.5639 35.2363H104.852V50.0727H97.5639" stroke="white" stroke-width="2"/>
<path d="M113.998 42.6543C113.998 46.3493 110.596 49.5361 106.149 49.5361C106.048 49.5361 105.948 49.5344 105.848 49.5311V35.7774C105.948 35.7741 106.048 35.7725 106.149 35.7725C110.596 35.7725 113.998 38.9593 113.998 42.6543Z" stroke="white" stroke-width="2"/>
<path d="M8.80823 63.9814H1V85.3087H88.7125V63.9814H68.9316M8.80823 63.9814V70.7042M8.80823 63.9814H16.3562M16.3562 63.9814V70.7042M16.3562 63.9814H23.9042M23.9042 63.9814V73.9496M23.9042 63.9814H31.4521M31.4521 63.9814V70.7042M31.4521 63.9814H39.2604M39.2604 63.9814V70.7042M39.2604 63.9814H46.548M46.548 63.9814V73.9496M46.548 63.9814H53.8357M53.8357 63.9814V70.7042M53.8357 63.9814H61.9042M61.9042 63.9814V70.7042M61.9042 63.9814H68.9316M68.9316 63.9814V73.9496" stroke="white" stroke-width="2"/>
<circle cx="79.918" cy="74.6504" r="4" stroke="white" stroke-width="2"/>
<path d="M97.3423 16.2121V101H19.1777V1H80.2629L97.3423 16.2121Z" stroke="white" stroke-width="2"/>
</svg>
