<svg width="139" height="67" viewBox="0 0 139 67" fill="none" xmlns="http://www.w3.org/2000/svg">
<path d="M32 1L2 66H16.8612L46.8399 1H32Z" stroke="white" stroke-width="2"/>
<path d="M47 1L16.9102 66H31.7714L61.75 1H47Z" stroke="white" stroke-width="2"/>
<path d="M61.8 1L31.8223 66H46.6835L76.6621 1H61.8Z" stroke="white" stroke-width="2"/>
<path d="M76 1L46.7324 66H61.5936L91.5723 1H76Z" stroke="white" stroke-width="2"/>
<path d="M106.51 1H91L61.6699 66H76.5311L98.8682 17.5686M106.51 1L98.8682 17.5686M106.51 1L137.001 66H121.371L98.8682 17.5686" stroke="white" stroke-width="2"/>
<rect x="92.1094" y="45.5879" width="5.17438" height="2.58824" stroke="white" stroke-width="2"/>
<rect x="101.848" y="45.5879" width="5.17438" height="2.58824" stroke="white" stroke-width="2"/>
<rect x="101.848" y="52.7256" width="5.17438" height="5.64706" stroke="white" stroke-width="2"/>
<rect x="92.1094" y="52.7256" width="5.17438" height="5.64706" stroke="white" stroke-width="2"/>
</svg>
