<svg width="123" height="79" viewBox="0 0 123 79" fill="none" xmlns="http://www.w3.org/2000/svg">
<path d="M57.8386 78H1V40.5405L17.389 18.6892V3.42793H41.7983V8.63063M57.8386 78H122V45.0495M57.8386 78V51.9865M41.7983 8.63063V18.6892L45.872 24.2387M41.7983 8.63063H81.2017M93.0576 8.63063H81.2017M81.2017 8.63063V12.0991V3.42793H105.262V18.6892M57.8386 45.0495V40.5405L45.872 24.2387M57.8386 45.0495H122M57.8386 45.0495V51.9865M122 45.0495V40.5405L115.849 32.5105M69.6945 51.9865H57.8386M65.8588 71.0631H81.2017M118.164 58.2297H108.749M17.389 46.7838H5.53314M45.872 24.2387H32.732M35.5216 68.982H15.2968M116.072 8.63063C119.641 10.2084 121.651 5.16216 122 3.42793L116.072 1C113.98 3.08108 112.934 7.24324 116.072 8.63063ZM116.072 8.63063L108.749 25.973M108.749 25.973L102.124 24.2387L100.032 29.0946L102.124 29.9144M108.749 25.973L113.631 29.6149L111.539 33.6036L108.749 32.5105M108.749 32.5105C107.587 34.4935 105.262 39.2919 105.262 42.6216M108.749 32.5105L102.124 29.9144M102.124 29.9144C100.729 31.9535 96.9631 36.9333 93.0576 40.5405M81.2017 42.6216L86.0836 33.6036C91.3141 33.6036 96.196 31.1757 96.196 24.2387C96.196 19.7991 95.0336 18.6892 94.4525 18.6892C93.9875 21.1171 92.2208 25.973 88.8732 25.973C85.5256 25.973 82.3641 23.4294 81.2017 22.1577C81.5504 20.3078 82.736 16.2613 84.6888 14.8739C87.1297 13.1396 77.0173 13.1396 75.6225 22.1577C75.0324 25.973 76.6686 28.0541 78.4121 29.0946L71.0893 40.5405M54.0029 29.9144L55.7464 28.0541M55.7464 28.0541L54.0029 22.6922L57.8386 13.8333L72.1354 21.1171L67.6023 28.0541L61.6744 31.1757M55.7464 28.0541L61.6744 31.1757M61.6744 31.1757C61.7906 32.7943 61.6046 36.3784 59.9308 37.7658" stroke="white" stroke-width="2" stroke-linecap="round" stroke-linejoin="round"/>
<path d="M30.3368 8.63089C30.3368 9.22292 29.8528 9.71197 29.2446 9.71197C28.6363 9.71197 28.1523 9.22292 28.1523 8.63089C28.1523 8.03885 28.6363 7.5498 29.2446 7.5498C29.8528 7.5498 30.3368 8.03885 30.3368 8.63089Z" stroke="white" stroke-width="2"/>
</svg>
