<svg width="29" height="28" viewBox="0 0 29 28" fill="none" xmlns="http://www.w3.org/2000/svg">
<path d="M4.25804 1L1.19922 3.82609V23.6087L1.70902 26L4.25804 25.3043H7.82667L8.84628 27H19.5522L20.5718 25.3043H24.6502L26.6894 26L27.1992 23.6087V3.82609L24.6502 1H20.5718L19.5522 2.69565H8.84628L7.82667 1H4.25804Z" stroke="#DFBC82" stroke-width="2" stroke-linejoin="round"/>
<path d="M1.39844 24C4.23177 18 17.5984 3.8 25.9984 3" stroke="#DFBC82" stroke-width="2"/>
<path d="M1 16.0004C5.5 10.5004 8.2 5.10059 15.7 2.60059" stroke="#DFBC82" stroke-width="2"/>
<path d="M7.69922 25C10.5326 19 19.2992 9.8 27.6992 9" stroke="#DFBC82" stroke-width="2"/>
<path d="M13.6992 27C16.5326 21 21.1992 17.5 27.6992 15" stroke="#DFBC82" stroke-width="2"/>
</svg>
