<?xml version="1.0" encoding="utf-8"?>
<!-- Generator: Adobe Illustrator 22.1.0, SVG Export Plug-In . SVG Version: 6.00 Build 0)  -->
<svg version="1.1" id="Слой_1" xmlns="http://www.w3.org/2000/svg" xmlns:xlink="http://www.w3.org/1999/xlink" x="0px" y="0px"
	 viewBox="0 0 196 60" style="enable-background:new 0 0 196 60;" xml:space="preserve">
<style type="text/css">
	.st0{fill-opacity:0;}
	.st1{fill:#FFFFFF;}
	.st2{fill:#A6DF82;}
	.st3{fill:#DFBC82;}
</style>
<rect x="0.5" y="0" class="st0" width="195.5" height="59.5"/>
<path class="st1" d="M81.9,29c0,0.7,0,1.3-0.1,2c0,0.6-0.1,1.2-0.1,1.8c0,0.6-0.1,1.2-0.2,1.7c-0.1,0.6-0.2,1.1-0.4,1.7
	c-0.2,0.5-0.4,1-0.6,1.5c-0.2,0.5-0.5,0.9-0.9,1.2c-0.4,0.3-0.8,0.6-1.3,0.8c-0.5,0.2-1.1,0.3-1.7,0.4l-0.2-1.5
	c0.8-0.1,1.5-0.4,1.9-0.8c0.5-0.4,0.9-1.1,1.2-2c0.3-1,0.5-2.2,0.6-3.6c0.1-1.4,0.1-3,0.1-4.7h7.1V40h-1.7V29H81.9z M89.7,35.3
	c0-0.8,0.1-1.5,0.4-2.2c0.2-0.6,0.6-1.1,1-1.5c0.4-0.4,0.9-0.7,1.4-0.9s1-0.3,1.6-0.3c1.3,0,2.2,0.4,2.9,1.2c0.7,0.8,1,2,1,3.6
	c0,0.1,0,0.2,0,0.3c0,0.1,0,0.2,0,0.3h-6.4c0.1,1,0.4,1.7,0.8,2.2c0.5,0.5,1.3,0.8,2.3,0.8c0.6,0,1.1,0,1.5-0.1
	c0.4-0.1,0.7-0.2,0.9-0.3l0.2,1.4c-0.2,0.1-0.6,0.2-1.1,0.3c-0.5,0.1-1.1,0.2-1.7,0.2c-0.8,0-1.5-0.1-2.1-0.4
	c-0.6-0.3-1.1-0.6-1.5-1c-0.4-0.4-0.7-0.9-0.9-1.5C89.8,36.7,89.7,36,89.7,35.3z M96.2,34.4c0-0.8-0.2-1.4-0.6-1.9
	c-0.4-0.5-0.9-0.7-1.6-0.7c-0.4,0-0.7,0.1-1,0.2c-0.3,0.1-0.5,0.3-0.7,0.6c-0.2,0.2-0.4,0.5-0.5,0.8c-0.1,0.3-0.2,0.6-0.2,1H96.2z
	 M104.4,40.2c-0.8,0-1.4-0.1-2-0.4c-0.6-0.2-1-0.6-1.4-1c-0.4-0.4-0.7-0.9-0.9-1.5c-0.2-0.6-0.3-1.3-0.3-2c0-0.7,0.1-1.4,0.3-2
	c0.2-0.6,0.5-1.1,0.9-1.5c0.4-0.4,0.9-0.8,1.4-1c0.6-0.3,1.2-0.4,1.9-0.4c0.4,0,0.8,0,1.3,0.1s0.8,0.2,1.2,0.3l-0.4,1.4
	c-0.3-0.1-0.5-0.2-0.9-0.3c-0.3-0.1-0.7-0.1-1-0.1c-0.9,0-1.7,0.3-2.2,0.9c-0.5,0.6-0.7,1.4-0.7,2.6c0,0.5,0.1,1,0.2,1.4
	c0.1,0.4,0.3,0.8,0.5,1.1c0.3,0.3,0.6,0.5,1,0.7c0.4,0.2,0.9,0.2,1.4,0.2c0.4,0,0.8,0,1.2-0.1c0.4-0.1,0.6-0.2,0.8-0.3l0.2,1.4
	c-0.1,0.1-0.2,0.1-0.4,0.2c-0.2,0-0.4,0.1-0.6,0.1c-0.2,0-0.5,0.1-0.7,0.1C104.9,40.2,104.6,40.2,104.4,40.2z M109.2,40v3.3h-1.7
	v-4.8h1.3c0.6-0.7,1.1-1.5,1.4-2.3c0.3-0.9,0.6-1.7,0.7-2.7c0.2-0.9,0.2-1.9,0.3-2.9c0-1,0.1-2,0.1-3.1h7.1v11h1.6v4.8h-1.7V40
	H109.2z M113,29c0,0.8-0.1,1.6-0.1,2.4c0,0.8-0.1,1.6-0.3,2.4c-0.1,0.8-0.3,1.6-0.6,2.4c-0.3,0.8-0.6,1.5-1.1,2.2h5.7V29H113z
	 M130,35.3c0,0.7-0.1,1.4-0.3,2c-0.2,0.6-0.5,1.1-0.9,1.5c-0.4,0.4-0.8,0.8-1.4,1c-0.5,0.2-1.1,0.3-1.8,0.3s-1.2-0.1-1.8-0.3
	c-0.5-0.2-1-0.6-1.4-1c-0.4-0.4-0.7-0.9-0.9-1.5c-0.2-0.6-0.3-1.3-0.3-2c0-0.7,0.1-1.4,0.3-2c0.2-0.6,0.5-1.1,0.9-1.6
	c0.4-0.4,0.9-0.8,1.4-1c0.5-0.2,1.1-0.4,1.8-0.4s1.2,0.1,1.8,0.4c0.5,0.2,1,0.6,1.4,1c0.4,0.4,0.7,1,0.9,1.6
	C129.9,33.9,130,34.6,130,35.3z M128.2,35.3c0-1.1-0.2-1.9-0.7-2.5c-0.5-0.6-1.1-0.9-1.9-0.9s-1.5,0.3-1.9,0.9
	c-0.5,0.6-0.7,1.4-0.7,2.5s0.2,1.9,0.7,2.5c0.5,0.6,1.1,0.9,1.9,0.9s1.5-0.3,1.9-0.9C128,37.2,128.2,36.4,128.2,35.3z M134.1,33.1
	c-0.1,1.2-0.2,2.4-0.3,3.6c-0.1,1.2-0.1,2.3-0.1,3.3h-1.6c0-0.7,0.1-1.5,0.1-2.3c0-0.8,0.1-1.6,0.2-2.4c0.1-0.8,0.1-1.6,0.2-2.4
	c0.1-0.8,0.2-1.5,0.2-2.3h1.5c0.4,0.6,0.8,1.5,1.3,2.6c0.5,1.1,1.1,2.3,1.8,3.7c0.7-1.4,1.3-2.7,1.8-3.7c0.5-1.1,1-2,1.3-2.6h1.5
	c0.1,0.7,0.2,1.5,0.2,2.3c0.1,0.8,0.1,1.6,0.2,2.4c0.1,0.8,0.1,1.6,0.2,2.4c0,0.8,0.1,1.6,0.1,2.3h-1.7c0-1-0.1-2.2-0.1-3.3
	c-0.1-1.2-0.2-2.4-0.3-3.6c-0.2,0.4-0.4,0.8-0.7,1.4c-0.3,0.5-0.5,1-0.8,1.6c-0.2,0.5-0.5,1.1-0.7,1.5s-0.4,0.9-0.5,1.2h-1.4
	c-0.1-0.3-0.3-0.7-0.5-1.2c-0.2-0.5-0.4-1-0.7-1.5c-0.2-0.6-0.5-1.1-0.7-1.6C134.5,33.9,134.3,33.5,134.1,33.1z M151,40.3
	c-0.9,0-1.7-0.1-2.4-0.4c-0.7-0.3-1.3-0.7-1.9-1.3c-0.5-0.6-0.9-1.2-1.2-2c-0.3-0.8-0.4-1.7-0.4-2.8c0-1,0.2-2,0.5-2.8
	c0.3-0.8,0.8-1.5,1.3-2.1c0.5-0.6,1.2-1,1.9-1.3s1.5-0.4,2.3-0.4c0.5,0,1,0,1.4,0.1c0.4,0.1,0.8,0.2,1.1,0.3
	c0.3,0.1,0.6,0.2,0.8,0.3c0.2,0.1,0.3,0.2,0.4,0.2l-0.5,1.4c-0.1-0.1-0.3-0.1-0.5-0.2c-0.2-0.1-0.4-0.2-0.7-0.3
	c-0.3-0.1-0.5-0.1-0.8-0.2c-0.3-0.1-0.6-0.1-0.9-0.1c-0.7,0-1.3,0.1-1.8,0.3c-0.5,0.2-1,0.6-1.3,1c-0.4,0.4-0.7,1-0.9,1.6
	c-0.2,0.6-0.3,1.3-0.3,2.1c0,0.7,0.1,1.4,0.3,2c0.2,0.6,0.4,1.1,0.8,1.6c0.3,0.4,0.8,0.8,1.3,1c0.5,0.2,1.1,0.4,1.8,0.4
	c0.8,0,1.5-0.1,2-0.3s0.9-0.3,1.2-0.5l0.5,1.4c-0.1,0.1-0.2,0.1-0.5,0.2c-0.2,0.1-0.5,0.2-0.8,0.3c-0.3,0.1-0.7,0.2-1.1,0.2
	C151.9,40.2,151.5,40.3,151,40.3z M162.7,30.6V32h-3v8h-1.7v-8h-3v-1.4H162.7z M170.9,35.3c0-1.1-0.3-1.9-0.8-2.5
	c-0.5-0.6-1.3-0.9-2.2-0.9c-0.5,0-0.9,0-1.2,0.1c-0.3,0-0.5,0.1-0.7,0.1V38c0.2,0.2,0.5,0.3,0.9,0.5c0.4,0.2,0.8,0.2,1.3,0.2
	c0.5,0,0.9-0.1,1.2-0.3c0.3-0.2,0.6-0.4,0.8-0.7c0.2-0.3,0.4-0.7,0.5-1.1C170.8,36.3,170.9,35.8,170.9,35.3z M172.6,35.3
	c0,0.7-0.1,1.4-0.3,2c-0.2,0.6-0.5,1.1-0.8,1.5s-0.8,0.8-1.3,1c-0.5,0.2-1.1,0.4-1.8,0.4c-0.5,0-1-0.1-1.4-0.2
	c-0.4-0.1-0.7-0.3-0.9-0.4v3.7h-1.7V30.9c0.4-0.1,0.9-0.2,1.5-0.3c0.6-0.1,1.3-0.2,2.1-0.2c0.7,0,1.4,0.1,1.9,0.3
	c0.6,0.2,1.1,0.6,1.5,1c0.4,0.4,0.7,0.9,0.9,1.5C172.5,33.9,172.6,34.6,172.6,35.3z M183.2,35.3c0,0.7-0.1,1.4-0.3,2
	c-0.2,0.6-0.5,1.1-0.9,1.5c-0.4,0.4-0.8,0.8-1.4,1c-0.5,0.2-1.1,0.3-1.8,0.3s-1.2-0.1-1.8-0.3c-0.5-0.2-1-0.6-1.4-1
	c-0.4-0.4-0.7-0.9-0.9-1.5c-0.2-0.6-0.3-1.3-0.3-2c0-0.7,0.1-1.4,0.3-2c0.2-0.6,0.5-1.1,0.9-1.6c0.4-0.4,0.9-0.8,1.4-1
	c0.5-0.2,1.1-0.4,1.8-0.4s1.2,0.1,1.8,0.4c0.5,0.2,1,0.6,1.4,1c0.4,0.4,0.7,1,0.9,1.6C183.1,33.9,183.2,34.6,183.2,35.3z
	 M181.5,35.3c0-1.1-0.2-1.9-0.7-2.5c-0.5-0.6-1.1-0.9-1.9-0.9s-1.5,0.3-1.9,0.9c-0.5,0.6-0.7,1.4-0.7,2.5s0.2,1.9,0.7,2.5
	c0.5,0.6,1.1,0.9,1.9,0.9s1.5-0.3,1.9-0.9C181.3,37.2,181.5,36.4,181.5,35.3z M193.5,30.6V40h-1.6v-7.1c-0.4,0.5-0.8,1-1.2,1.6
	c-0.4,0.6-0.9,1.2-1.3,1.9c-0.4,0.6-0.8,1.3-1.2,1.9c-0.4,0.6-0.7,1.2-1,1.7h-1.5v-9.4h1.6v6.7c0.3-0.5,0.7-1.1,1.1-1.7
	c0.4-0.6,0.8-1.2,1.2-1.8c0.4-0.6,0.9-1.2,1.3-1.7c0.4-0.6,0.8-1,1.2-1.5H193.5z M189.5,29.1c-0.8,0-1.4-0.2-1.9-0.6
	c-0.5-0.4-0.8-0.9-0.8-1.6l1.3-0.3c0.1,0.4,0.3,0.7,0.5,0.9c0.2,0.2,0.5,0.4,0.9,0.4c0.4,0,0.7-0.1,0.9-0.4s0.4-0.6,0.5-0.9l1.3,0.3
	c-0.1,0.7-0.4,1.2-0.8,1.6C190.9,28.9,190.3,29.1,189.5,29.1z"/>
<rect x="0.5" y="0" class="st0" width="59.5" height="59.5"/>
<path class="st2" d="M29.5,37.5v-10C28,26,26.5,26,24,24c3-0.5,9.6-9.5,8-9.5c-1.5,0-1,0-3-0.5c4-1.5,5.5-9.5,7-14
	c1.5,5,3.5,11.5,9.5,16.5H42c2.5,5,8.5,7,10.5,8C52,25,50,26,46,26c1.5,1.5,2,1,4,2c-1,0.5-1.5,0.5-4,1c2,1.5,2,1.5,4.5,3h-6
	c4,8.5,11.5,10,14,11c-2,1-3.5,1-6.5,1c1.5,3.5,6,4,8,4.5c-1,0.5-1.5,1-4,1.5c1,1,1.5,1,3,1.5c-2,3.6-13.8,4.8-19.5,5v3h-4v-3
	L34.3,56v-7c0,0,0.7,0,1.2,0c2-1,3-3.6,3-3.6L29.5,37.5z"/>
<path class="st3" d="M26.5,28.5V39L23,35.5v-7H26.5z"/>
<path class="st3" d="M26,48.5h-0.5v11H26V48.5z"/>
<path class="st3" d="M16,30L0.5,43.5v16H19v-11h6.5v11H31v-16L16,30z M9.5,48h-5v7h5V48z M10.5,55v-7h5v7H10.5z M15.5,41
	c1.4,0,2.5-1.1,2.5-2.5S16.9,36,15.5,36S13,37.1,13,38.5S14.1,41,15.5,41z"/>
</svg>
