<svg width="97" height="99" viewBox="0 0 97 99" fill="none" xmlns="http://www.w3.org/2000/svg">
<rect width="95.9993" height="98.0001" fill="black" fill-opacity="0" transform="translate(1 1)"/>
<path d="M4.27118 52.9761C7.09372 43.5073 14.5708 38.9702 20.6897 39.2721C20.9859 39.2867 21.2772 39.1835 21.487 38.9739L31.2304 29.2387C31.6212 28.8482 31.6213 28.2147 31.2305 27.8241L30.8041 27.3978C30.4316 27.0254 30.4117 26.428 30.7587 26.0317L33.7247 22.645C34.0691 22.2517 34.6583 22.1901 35.0766 22.5036L36.0132 23.2054C36.4217 23.5115 36.9952 23.4608 37.3436 23.0878L44.4431 15.4876C44.8169 15.0875 44.7994 14.4613 44.4039 14.0826L31.4715 1.70019C31.0691 1.3149 30.4294 1.33276 30.0491 1.7399L22.902 9.39182C22.5822 9.73417 22.543 10.2526 22.8076 10.6392L23.4274 11.5448C23.7059 11.9518 23.6461 12.501 23.2866 12.8386L20.467 15.4858C20.1617 15.7724 19.7102 15.8385 19.3356 15.6514L18.2069 15.0876C17.8221 14.8953 17.3575 14.9707 17.0533 15.2747L7.48757 24.8311C7.09641 25.2218 7.11969 25.8358 7.47828 26.2567C7.58369 26.3804 7.61436 26.4467 7.65095 26.5523C7.81149 27.0152 7.68683 27.5418 7.31897 27.8655C1.69159 32.8169 -0.97492 46.5876 2.67131 53.2734C3.06141 53.9887 4.03843 53.7569 4.27118 52.9761Z" stroke="white" stroke-width="2"/>
<path d="M70.7401 90.8527L26.0082 43.0036C25.6399 42.6096 25.6504 41.9945 26.0319 41.6133L33.6611 33.9906C34.0376 33.6144 34.6428 33.599 35.0379 33.9556L83.6465 77.8232C87.0992 80.9392 87.1763 86.3324 83.8141 89.5457L82.1115 91.1729C78.8925 94.2494 73.781 94.1055 70.7401 90.8527Z" stroke="white" stroke-width="2"/>
<path d="M36.7845 63.2564L46.3776 72.851L26.3978 92.7942C23.7461 95.4411 19.4489 95.4389 16.7998 92.7894C14.1507 90.14 14.1529 85.8464 16.8046 83.1996L36.7845 63.2564Z" stroke="white" stroke-width="2"/>
<path d="M81.9755 37.2204L82.5503 37.3725L82.9586 36.9401L93.0686 26.2293C93.0899 26.2847 93.1114 26.3404 93.1331 26.3963C93.2617 26.728 93.3939 27.0624 93.5295 27.4053C93.6993 27.8345 93.8743 28.277 94.054 28.7443C94.3681 29.561 94.6591 30.3588 94.8659 31.0461C95.0843 31.7719 95.167 32.2455 95.1561 32.4703C94.7172 41.4608 86.8027 48.4395 77.4083 47.9817C75.4213 47.8849 73.5325 47.4629 71.7935 46.773L71.1959 46.5359L70.7322 46.9811L64.5078 52.9559L56.1876 44.8672L62.2238 38.7221L62.687 38.2506L62.4347 37.6397C61.5661 35.536 61.1379 33.2258 61.2554 30.8183C61.6943 21.8278 69.6088 14.8491 79.0032 15.3069C80.222 15.3663 81.388 15.7418 82.6087 16.1841L72.4056 26.9935L71.9793 27.4451L72.1951 28.0275L74.7293 34.8643L74.9096 35.3507L75.4111 35.4834L81.9755 37.2204Z" stroke="white" stroke-width="2"/>
</svg>
