<svg width="98" height="100" viewBox="0 0 98 100" fill="none" xmlns="http://www.w3.org/2000/svg">
<rect width="96" height="97.9999" fill="black" fill-opacity="0" transform="translate(1 1)"/>
<path d="M55.2366 41.719C55.2366 53.791 45.9246 63.4937 34.5382 63.4937C23.1519 63.4937 13.8398 53.791 13.8398 41.719C13.8398 29.647 23.1519 19.9443 34.5382 19.9443C45.9246 19.9443 55.2366 29.647 55.2366 41.719Z" stroke="white" stroke-width="2"/>
<path d="M69.3828 98.9997C69.3828 79.1796 54.0748 63.1123 35.1914 63.1123C16.308 63.1123 1 79.1796 1 98.9997" stroke="white" stroke-width="2" stroke-linecap="round"/>
<path d="M62.7899 42.4086C73.6927 42.4086 82.5311 33.1389 82.5311 21.7043C82.5311 10.2696 73.6927 1 62.7899 1C54.4197 1 47.2662 6.46338 44.3945 14.1754" stroke="white" stroke-width="2" stroke-linecap="round"/>
<path d="M62.8086 42.4082C81.692 42.4082 97 58.4755 97 78.2956H73.329" stroke="white" stroke-width="2" stroke-linecap="round"/>
</svg>
