<svg width="101" height="102" viewBox="0 0 101 102" fill="none" xmlns="http://www.w3.org/2000/svg">
<path d="M93.2754 42.2793C94.226 47.5348 91.6911 54.0245 90.3048 56.6124H12.4749L14.2572 47.6538L7.12891 47.6537C7.12786 33.9178 15.8405 28.3441 22.5739 21.9738C20.1984 19.5848 20.7925 20.182 17.2269 16.5989C27.9219 4.6545 35.6455 5.84893 47.5278 4.6545L46.936 1.07122C49.9043 0.474018 66.5396 3.46026 73.669 16.5989C75.4514 14.8071 76.0455 14.2099 78.4224 11.8219C87.9283 18.0329 87.9283 34.7143 86.7401 42.2786C90.3048 42.2789 90.3048 42.2801 93.2754 42.2793Z" stroke="white" stroke-width="2"/>
<path d="M36.6484 46.3405C36.6484 38.6421 42.8555 32.4102 50.5014 32.4102C58.1473 32.4102 64.3543 38.6421 64.3543 46.3405C64.3543 50.5151 62.5294 54.2592 59.6365 56.813H41.3663C38.4734 54.2592 36.6484 50.5151 36.6484 46.3405Z" stroke="white" stroke-width="2"/>
<rect x="1" y="63.584" width="99" height="19.4996" rx="3" stroke="white" stroke-width="2"/>
<rect x="8.12891" y="82.6943" width="8.69412" height="13.5275" stroke="white" stroke-width="2"/>
<rect x="84.1758" y="82.6943" width="8.69412" height="13.5275" stroke="white" stroke-width="2"/>
<rect x="1" y="95.833" width="22.9529" height="5.16655" rx="2.58327" stroke="white" stroke-width="2"/>
<rect x="77.0469" y="95.833" width="22.9529" height="5.16655" rx="2.58327" stroke="white" stroke-width="2"/>
</svg>
