<svg width="98" height="100" viewBox="0 0 98 100" fill="none" xmlns="http://www.w3.org/2000/svg">
<rect width="96" height="98" fill="black" fill-opacity="0" transform="translate(1 1)"/>
<path d="M10.7778 49.0556C4.64236 51.2817 1 54.06 1 57.0732C1 64.3923 22.4903 70.3256 49 70.3256C75.5097 70.3256 97 64.3923 97 57.0732C97 51.677 87.0959 47.948 70.3333 45.8809" stroke="white" stroke-width="2" stroke-linecap="round"/>
<path d="M1 57.6719V98.9224" stroke="white" stroke-width="2"/>
<path d="M80.3477 98.9996C80.3477 98.2552 80.3477 94.9074 80.3477 92.906C80.3477 92.5705 80.5159 92.2581 80.7957 92.0729L84.6324 89.5332C85.1873 89.1658 85.2353 88.3691 84.7285 87.9378L80.6995 84.5087C80.4763 84.3187 80.3477 84.0403 80.3477 83.7472V77.5791" stroke="white" stroke-width="2" stroke-linecap="round"/>
<path d="M32.7422 98.9996C32.7422 98.2616 32.7422 96.6009 32.7422 94.9067C32.7422 94.5712 32.5739 94.2581 32.2942 94.0729L28.4574 91.5332C27.9025 91.1658 27.8545 90.3691 28.3613 89.9378L32.3903 86.5087C32.6136 86.3187 32.7422 86.0403 32.7422 85.7472V77.5791" stroke="white" stroke-width="2" stroke-linecap="round"/>
<path d="M97 57.6113V98.9223" stroke="white" stroke-width="2"/>
<path d="M14.1914 76.5596V85.7398" stroke="white" stroke-width="2" stroke-linecap="round"/>
<path d="M49.1562 80.6396V99.0001" stroke="white" stroke-width="2" stroke-linecap="round"/>
<path d="M14.1914 91.8594V98.9995" stroke="white" stroke-width="2" stroke-linecap="round"/>
<path d="M67.1914 99V89.8198" stroke="white" stroke-width="2" stroke-linecap="round"/>
<path d="M67.1914 83.7002V76.56" stroke="white" stroke-width="2" stroke-linecap="round"/>
<path d="M52.7728 21.988L52.2926 22.8652L52.517 22.988H52.7728V21.988ZM39.829 12.2978L40.6632 11.7464L39.829 12.2978ZM10.7054 1.58755L10.5308 0.602905L10.399 0.626271L10.278 0.683468L10.7054 1.58755ZM45.7597 29.6384L45.4591 30.5921L45.7597 29.6384ZM29.5823 42.3887L29.8321 41.4204L28.0163 40.9521L28.6391 42.7208L29.5823 42.3887ZM42.5237 56.159V57.159H46.0928L43.0433 55.3046L42.5237 56.159ZM64.0968 57.159C64.6491 57.159 65.0968 56.7113 65.0968 56.159C65.0968 55.6067 64.6491 55.159 64.0968 55.159V57.159ZM56.0069 21.988L56.5634 21.1572L56.3109 20.988H56.0069V21.988ZM47.5124 32.6984L46.5124 32.6949L47.5124 32.6984ZM66.798 29.2164L66.2415 30.0473L66.798 29.2164ZM53.253 21.1109C51.5716 20.1903 48.9072 18.603 46.4031 16.8469C43.8572 15.0615 41.6251 13.2017 40.6632 11.7464L38.9947 12.8492C40.1902 14.658 42.7221 16.7082 45.2548 18.4844C47.8294 20.29 50.5583 21.9157 52.2926 22.8652L53.253 21.1109ZM40.6632 11.7464C37.8251 7.4523 28.305 -2.54861 10.5308 0.602905L10.88 2.57219C27.6226 -0.396436 36.4396 8.98311 38.9947 12.8492L40.6632 11.7464ZM10.278 0.683468C8.56682 1.49237 7.48366 2.43563 7.04339 3.55712C6.58373 4.72801 6.9276 5.81357 7.42189 6.63133C7.90818 7.43587 8.61118 8.10829 9.12681 8.57138C9.41775 8.83267 9.59555 8.98103 9.75995 9.13345C9.79458 9.16557 9.82088 9.19091 9.84047 9.21067C9.86089 9.23128 9.86788 9.23965 9.86656 9.23807C9.8655 9.2368 9.8598 9.22993 9.85129 9.21803C9.84311 9.20659 9.82851 9.18519 9.81178 9.15492C9.7893 9.11424 9.70538 8.95755 9.70538 8.72788H11.7054C11.7054 8.46632 11.6088 8.27179 11.5622 8.18749C11.5075 8.08851 11.4461 8.00932 11.402 7.95645C11.3135 7.85045 11.2084 7.74902 11.1198 7.66686C10.9554 7.51447 10.678 7.27633 10.4632 7.08339C9.96728 6.63802 9.45644 6.13103 9.13351 5.59676C8.81857 5.07572 8.75782 4.66308 8.90508 4.28796C9.07173 3.86343 9.60703 3.21285 11.1327 2.49163L10.278 0.683468ZM9.70538 8.72788C9.70538 9.31087 10.1438 9.58457 10.2632 9.64923C10.4148 9.7314 10.5619 9.7656 10.6354 9.78098C10.8006 9.81558 10.9941 9.83182 11.1671 9.84252C11.5245 9.86464 12.0476 9.87552 12.636 9.89472C13.844 9.93413 15.5013 10.0123 17.3657 10.2907C21.1155 10.8507 25.5815 12.2034 28.8664 15.5487L30.2934 14.1474C26.5671 10.3526 21.5958 8.90026 17.6611 8.31267C15.6834 8.01732 13.9366 7.93608 12.7012 7.89578C12.0678 7.87511 11.6093 7.86606 11.2906 7.84634C11.2149 7.84166 11.1557 7.83683 11.1105 7.832C11.0628 7.82691 11.0442 7.82323 11.0453 7.82344C11.0465 7.82371 11.0613 7.82678 11.0852 7.83436C11.1065 7.84116 11.1552 7.85784 11.2161 7.89085C11.2901 7.93095 11.7054 8.17676 11.7054 8.72788H9.70538ZM28.8664 15.5487C32.3477 19.094 35.6151 22.5686 38.3897 25.2564C39.7816 26.6047 41.0748 27.7803 42.2363 28.6888C43.3795 29.5829 44.4728 30.2812 45.4591 30.5921L46.0603 28.6846C45.4286 28.4855 44.5669 27.9725 43.4685 27.1134C42.3884 26.2687 41.1536 25.1492 39.7813 23.8199C37.0278 21.1526 33.8233 17.7421 30.2934 14.1474L28.8664 15.5487ZM47.4563 35.2485C47.4563 35.0271 47.5551 34.9326 47.4933 35.0199C47.4524 35.0777 47.365 35.1793 47.2089 35.3239C46.9001 35.6101 46.4217 35.9743 45.7913 36.3898C44.5374 37.2161 42.7827 38.1794 40.8346 39.0538C38.886 39.9284 36.7746 40.7003 34.8068 41.1599C32.8136 41.6253 31.0815 41.7426 29.8321 41.4204L29.3326 43.357C31.0495 43.7998 33.1597 43.5983 35.2616 43.1075C37.3888 42.6107 39.6252 41.7889 41.6535 40.8784C43.6823 39.9678 45.5338 38.9547 46.8918 38.0598C47.5673 37.6146 48.1463 37.1819 48.5684 36.7908C48.7778 36.5968 48.9742 36.3895 49.1258 36.1753C49.2565 35.9907 49.4563 35.6611 49.4563 35.2485H47.4563ZM28.6391 42.7208C29.7565 45.8944 31.1736 48.3187 33.3097 50.5406C35.4248 52.7408 38.2122 54.7075 42.0041 57.0134L43.0433 55.3046C39.2871 53.0204 36.6813 51.162 34.7515 49.1546C32.8425 47.1689 31.563 45.003 30.5256 42.0566L28.6391 42.7208ZM42.5237 55.159H31.7372V57.159H42.5237V55.159ZM31.7372 57.159H56.0069V55.159H31.7372V57.159ZM56.0069 57.159H64.0968V55.159H56.0069V57.159ZM56.9703 55.8909C56.5749 54.4701 56.5593 52.4713 56.9857 50.4351C57.4113 48.4022 58.2523 46.4532 59.4538 45.0899L57.9533 43.7676C56.458 45.4643 55.5013 47.7654 55.0281 50.0251C54.5556 52.2815 54.54 54.6178 55.0435 56.4271L56.9703 55.8909ZM59.4538 45.0899C60.7512 43.6176 62.0394 42.5247 62.9812 41.8716C63.4605 41.5392 63.8125 41.347 64.0089 41.2674C64.1314 41.2178 64.0928 41.2536 63.963 41.2519C63.8952 41.2511 63.6713 41.2388 63.4474 41.0626C63.1788 40.8512 63.0968 40.5564 63.0968 40.3486H65.0968C65.0968 40.0771 64.9937 39.7345 64.6843 39.491C64.4195 39.2826 64.1351 39.2539 63.9882 39.2521C63.7004 39.2484 63.4301 39.344 63.2577 39.4139C62.8642 39.5734 62.3735 39.8593 61.8415 40.2281C60.7609 40.9776 59.3525 42.1797 57.9533 43.7676L59.4538 45.0899ZM63.0968 40.3486C63.0968 40.4027 63.0999 40.5336 63.1534 40.688C63.2083 40.8465 63.3678 41.1608 63.7567 41.3043C64.1195 41.4381 64.4218 41.3236 64.5359 41.27C64.6623 41.2105 64.748 41.138 64.7854 41.1047C64.913 40.9911 65.0018 40.8522 65.0247 40.8175C65.1095 40.6885 65.2143 40.5044 65.3254 40.3005C65.5547 39.8798 65.8726 39.2605 66.2367 38.5346C66.9671 37.0785 67.9038 35.1524 68.7335 33.4283L66.9314 32.561C66.103 34.2823 65.1719 36.1967 64.449 37.6379C64.0864 38.3607 63.7813 38.9544 63.5692 39.3435C63.4597 39.5445 63.3891 39.6646 63.3539 39.7181C63.3167 39.7747 63.3592 39.6966 63.4557 39.6108C63.4852 39.5845 63.564 39.5169 63.6846 39.4602C63.7927 39.4093 64.09 39.2955 64.4489 39.4279C64.8337 39.5699 64.9903 39.8805 65.0432 40.0333C65.0947 40.1818 65.0968 40.3048 65.0968 40.3486H63.0968ZM67.3546 28.3856L56.5634 21.1572L55.4504 22.8189L66.2415 30.0473L67.3546 28.3856ZM56.0069 20.988H52.7728V22.988H56.0069V20.988ZM45.4591 30.5921C46.0173 30.7681 46.2222 31.029 46.3352 31.2939C46.4793 31.6319 46.5146 32.0793 46.5124 32.6949L48.5124 32.702C48.5146 32.0876 48.4967 31.2644 48.175 30.5096C47.8221 29.6817 47.1485 29.0276 46.0603 28.6846L45.4591 30.5921ZM46.5124 32.6949C46.5108 33.1385 46.6012 33.5076 46.7651 33.8328C46.9111 34.1225 47.1122 34.3568 47.1997 34.4669C47.3027 34.5966 47.3485 34.6662 47.3822 34.7489C47.4145 34.8283 47.4563 34.9734 47.4563 35.2485H49.4563C49.4563 34.7586 49.3796 34.3509 49.2343 33.9942C49.0904 33.6409 48.8994 33.3912 48.7659 33.2231C48.6168 33.0355 48.5816 32.9933 48.5511 32.9327C48.5384 32.9074 48.5118 32.8521 48.5124 32.702L46.5124 32.6949ZM55.2234 21.3666L46.7289 32.077L48.2959 33.3198L56.7904 22.6094L55.2234 21.3666ZM68.7335 33.4283C69.596 31.6361 69.0021 29.4892 67.3546 28.3856L66.2415 30.0473C67.0669 30.6002 67.3596 31.6712 66.9314 32.561L68.7335 33.4283Z" fill="white"/>
</svg>
