<svg width="229" height="117" viewBox="0 0 229 117" fill="none" xmlns="http://www.w3.org/2000/svg">
<path d="M114.945 3.51214C115.746 2.52262 117.254 2.52262 118.055 3.51214L124.653 11.6688C125.814 13.1035 127.805 13.558 129.473 12.7689L138.957 8.28299C140.108 7.73878 141.467 8.39346 141.759 9.6323L144.165 19.8441C144.588 21.6403 146.185 22.9138 148.031 22.9267L158.522 22.9999C159.794 23.0088 160.735 24.1885 160.461 25.4313L158.198 35.6757C157.8 37.4776 158.686 39.318 160.343 40.1302L169.763 44.7481C170.906 45.3083 171.242 46.7794 170.455 47.78L163.971 56.0279C162.831 57.4787 162.831 59.5213 163.971 60.9721L170.455 69.22C171.242 70.2206 170.906 71.6917 169.763 72.2519L160.343 76.8698C158.686 77.682 157.8 79.5224 158.198 81.3243L160.461 91.5687C160.735 92.8115 159.794 93.9912 158.522 94.0001L148.031 94.0733C146.185 94.0862 144.588 95.3597 144.165 97.1559L141.759 107.368C141.467 108.607 140.108 109.261 138.957 108.717L129.473 104.231C127.805 103.442 125.814 103.897 124.653 105.331L118.055 113.488C117.254 114.477 115.746 114.477 114.945 113.488L108.347 105.331C107.186 103.897 105.195 103.442 103.527 104.231L94.0426 108.717C92.8921 109.261 91.5326 108.607 91.2407 107.368L88.8348 97.1559C88.4117 95.3597 86.8147 94.0862 84.9694 94.0733L74.4782 94.0001C73.2055 93.9912 72.2647 92.8115 72.5393 91.5687L74.8024 81.3243C75.2005 79.5224 74.3142 77.682 72.6572 76.8698L63.2368 72.2519C62.094 71.6917 61.7582 70.2206 62.5448 69.22L69.0287 60.9721C70.1691 59.5213 70.1691 57.4787 69.0287 56.0279L62.5448 47.78C61.7582 46.7794 62.094 45.3083 63.2368 44.7481L72.6572 40.1302C74.3142 39.318 75.2005 37.4776 74.8024 35.6757L72.5393 25.4313C72.2647 24.1885 73.2055 23.0088 74.4782 22.9999L84.9694 22.9267C86.8147 22.9138 88.4117 21.6403 88.8348 19.8441L91.2407 9.6323C91.5326 8.39346 92.8921 7.73878 94.0426 8.28299L103.527 12.7689C105.195 13.558 107.186 13.1035 108.347 11.6688L114.945 3.51214Z" stroke="#DFBC82" stroke-width="2"/>
<circle cx="116.5" cy="58.5" r="35.27" stroke="#DFBC82" stroke-width="2"/>
<path d="M96.1571 52.7502L109.887 63.185C110.314 63.5092 110.919 63.4398 111.265 63.0305C117.94 55.1313 129.282 43.9408 133.352 39.3211C133.428 39.2345 133.518 39.164 133.619 39.1096C138.665 36.4118 140.964 40.2311 140.517 44.193C140.497 44.3679 140.43 44.5274 140.321 44.6656C132.268 54.8808 116.017 75.6006 114.158 78.3898C112.286 81.1978 109.088 79.5598 107.723 78.3898C102.878 73.7379 94.9488 63.8841 90.8343 58.0207C90.7841 57.9492 90.7438 57.8705 90.7149 57.7881C88.9749 52.8221 92.4349 51.5286 95.8671 52.5989C95.9718 52.6316 96.0698 52.6838 96.1571 52.7502Z" stroke="#DFBC82" stroke-width="2"/>
<path d="M75.5 36H3L23 58.5L3 81H75.5M158.5 36H226L206 58.5L226 81H158.5" stroke="#DFBC82" stroke-width="2"/>
</svg>
