<svg width="135" height="117" viewBox="0 0 135 117" fill="none" xmlns="http://www.w3.org/2000/svg">
<path d="M86.5781 82.0094H98.5699L114.922 66.1543" stroke="#DFBC82" stroke-width="2" stroke-linecap="round"/>
<path d="M127.459 62.3271V10.9346H106.746L104.221 22.0781C103.515 25.1941 99.0753 25.1941 98.3693 22.0781L95.8443 10.9346H82.2172L79.4124 22.7236C78.681 25.7978 74.3067 25.7978 73.5753 22.7236L70.7705 10.9346H57.6885L54.8837 22.7236C54.1523 25.7978 49.778 25.7978 49.0466 22.7236L46.2418 10.9346H33.1598L30.0749 23.3117C29.319 26.3443 25.0089 26.3443 24.253 23.3117L21.168 10.9346H1V107.159H75.1311" stroke="#DFBC82" stroke-width="2"/>
<rect x="26.0742" width="2.18033" height="17.4953" rx="1.09016" fill="#DFBC82"/>
<rect x="51.1484" width="2.18033" height="17.4953" rx="1.09016" fill="#DFBC82"/>
<rect x="75.1328" width="2.18033" height="17.4953" rx="1.09016" fill="#DFBC82"/>
<rect x="100.203" width="2.18033" height="17.4953" rx="1.09016" fill="#DFBC82"/>
<path d="M8.62891 49.2056H75.1289L72.9486 51.3925H8.62891V49.2056Z" fill="#DFBC82"/>
<path d="M8.62891 66.7012H62.0469V68.8881H8.62891V66.7012Z" fill="#DFBC82"/>
<path d="M8.62891 84.1963H62.0469V86.3832H8.62891V84.1963Z" fill="#DFBC82"/>
<rect x="22.8047" y="50.2988" width="2.18033" height="48.1121" fill="#DFBC82"/>
<rect x="43.5156" y="50.2988" width="2.18033" height="48.1121" fill="#DFBC82"/>
<path d="M64.2305 50.2988H66.4108V59.0465L64.2305 61.2334V50.2988Z" fill="#DFBC82"/>
<path d="M133.001 81.4627C133.001 100.54 117.583 116 98.571 116C79.5585 116 64.1406 100.54 64.1406 81.4627C64.1406 62.3854 79.5585 46.9253 98.571 46.9253C117.583 46.9253 133.001 62.3854 133.001 81.4627Z" stroke="#DFBC82" stroke-width="2"/>
<ellipse cx="98.5688" cy="53.0328" rx="1.63525" ry="1.64019" fill="#DFBC82"/>
<ellipse cx="126.913" cy="81.4625" rx="1.63525" ry="1.64019" fill="#DFBC82"/>
<ellipse cx="70.2251" cy="81.4625" rx="1.63525" ry="1.64019" fill="#DFBC82"/>
<ellipse cx="98.5688" cy="109.893" rx="1.63525" ry="1.64019" fill="#DFBC82"/>
</svg>
