<svg width="216" height="119" viewBox="0 0 216 119" fill="none" xmlns="http://www.w3.org/2000/svg">
<path d="M18 51.4999L16.1157 44.905C16.0417 44.646 16.0754 44.3681 16.209 44.1342L17.7034 41.5191C17.886 41.1994 17.8783 40.8052 17.6831 40.4929L15.9216 37.6745C15.6748 37.2797 15.7332 36.7667 16.0625 36.4374L16.9903 35.5096C17.2947 35.2052 17.7583 35.1334 18.1574 35.2945C19.2619 35.7401 20.8471 36.1528 21.5 35.4999C22.0855 34.9144 22.3496 34.1146 22.4492 33.5318C22.5055 33.2022 22.6671 32.8885 22.9453 32.7031L24.8249 31.45C25.2183 31.1877 25.3743 30.6856 25.1987 30.2466L23.7311 26.5777C23.5896 26.224 23.6614 25.8206 23.9163 25.5374L27.5485 21.5016C27.8152 21.2052 28.247 21.1235 28.6036 21.3018V21.3018C28.8532 21.4265 29.1468 21.4265 29.3964 21.3018L31.4277 20.2861C31.7766 20.1116 32.195 20.156 32.4996 20.3996L33.1691 20.9352C33.7654 21.4122 34.6655 21.0696 34.9255 20.3517C35.1886 19.6254 35.5526 18.9999 36 18.9999C37 18.9999 39 19.4999 40 19.9999C40.7169 20.3584 42.8255 20.2083 44.0954 20.0533C44.3555 20.0215 44.5857 19.8829 44.7585 19.686C47.1962 16.9088 54.9006 12.3525 55.467 12.0193C55.4909 12.0052 55.5111 11.9947 55.536 11.9825C55.6931 11.9057 56.3428 11.5823 57.0393 11.1516C57.7331 10.7226 60.9232 11.0768 61.5 10.5V10.5C62 10 62.5 14.5 63.5 14.5C64.2451 14.5 63.8914 15.6565 63.5701 16.3539C63.5251 16.4515 63.4923 16.5542 63.4771 16.6606L63.0571 19.6C63.0205 19.8566 62.8857 20.0889 62.6811 20.248L59.6157 22.6322C59.0711 23.0558 58.2712 22.8137 58.053 22.1591L56.617 17.851C56.3593 17.0779 55.3347 16.9211 54.8576 17.5817L50.992 22.9342C50.4597 23.6712 51.1117 24.6625 51.9512 24.3135C52.1996 24.2103 52.396 24.104 52.5 24C53 23.5 54.5 26.5 54.5 27C54.5 27.3437 56.2223 26.7277 57.4474 26.2303C57.7892 26.0915 58.1786 26.145 58.4743 26.3656C59.407 27.0616 60.8288 28 61.5 28C62.1153 28 63.5587 26.8169 64.6474 25.8157C65.1022 25.3974 65.8314 25.4578 66.1078 26.0105C66.7105 27.2153 67.0212 28.6958 65.5 29C63.6448 29.371 65.9483 30.3443 67.6218 30.8824C67.8643 30.9604 68.1269 30.9366 68.3547 30.8226L69.415 30.2925C69.7704 30.1148 70.1972 30.1643 70.5024 30.4187L72.7219 32.2682C72.9016 32.418 73.1281 32.5 73.362 32.5H75.4197C75.7785 32.5 76.1099 32.6923 76.2879 33.0039L77.5933 35.2882C77.8298 35.7021 78.3255 35.8915 78.7777 35.7408L79.346 35.5513C79.448 35.5173 79.5438 35.4671 79.6298 35.4026L80.8583 34.4813C81.2332 34.2001 81.7532 34.217 82.1091 34.522L84.7065 36.7484C84.8953 36.9103 85.0171 37.1368 85.048 37.3836L85.3124 39.4992C85.3986 40.1887 86.1803 40.5465 86.7584 40.161V40.161C86.9158 40.0562 87.0376 39.906 87.1078 39.7304L87.9613 37.5967C87.987 37.5324 88.0182 37.4725 88.057 37.4151C89.2232 35.6932 91.796 32.6939 94.2385 32.0822C94.8671 31.9248 95.2661 32.5798 95.0362 33.1856C94.3779 34.9208 94.0333 36.1346 94.0023 37.3239C93.9993 37.4404 93.9796 37.556 93.9398 37.6656L93.8164 38.0049C93.4401 39.0398 94.7749 39.8287 95.5 39V39C96.1667 38.1667 97.5 36.1 97.5 34.5C97.5 33.1925 98.3904 33.3542 99.0798 33.7298C99.3562 33.8805 99.5 34.1852 99.5 34.5V36C99.5 36.5535 100.169 36.8307 100.561 36.4393V36.4393C100.803 36.1967 101.197 36.1967 101.439 36.4393L102.928 37.9276C102.975 37.9754 103.013 38.0323 103.038 38.0951V38.0951C103.242 38.605 104 38.459 104 37.9098V37.0549C104 37.0184 104.003 36.9819 104.009 36.9458L104.361 34.8356C104.441 34.3534 104.858 34 105.347 34H106.764C106.919 34 107.072 34.0361 107.211 34.1056L108.355 34.6777C108.74 34.8702 109.205 34.7947 109.51 34.4903L110.43 33.57C110.477 33.5235 110.518 33.4724 110.555 33.4176L112.95 29.8243C113.254 29.369 113.869 29.246 114.324 29.5495V29.5495C114.717 29.8115 115.24 29.7596 115.574 29.4257L116.387 28.6133C116.739 28.2614 117.296 28.2218 117.694 28.5204L118.537 29.1531C118.824 29.3677 119.203 29.4132 119.531 29.2723L122.254 28.1053C122.415 28.0363 122.555 27.9263 122.66 27.7862L123.864 26.1815C123.953 26.062 124.015 25.924 124.044 25.7776L124.278 24.6108C124.396 24.021 125.004 23.668 125.575 23.8582L126.949 24.3165C127.29 24.43 127.543 24.7172 127.614 25.0691L127.88 26.4021C127.954 26.7693 128.226 27.0646 128.586 27.1675L130.613 27.7467C131.114 27.8898 131.421 28.3935 131.319 28.9043L131.018 30.41C131.006 30.4699 130.989 30.5285 130.966 30.5852L130 33L129 35.5L128.815 35.8243C128.311 36.7063 129.294 37.6893 130.176 37.1853V37.1853C130.385 37.0658 130.63 37.026 130.866 37.0733L132.74 37.4479C132.91 37.482 133.087 37.4711 133.252 37.416L133.999 37.1671C134.298 37.0673 134.5 36.7872 134.5 36.4717V36.4717C134.5 35.9847 134.966 35.6332 135.434 35.7669L137.756 36.4303C137.916 36.476 138.085 36.4811 138.248 36.445L141.985 35.6145C142.307 35.5429 142.573 35.3165 142.696 35.0097L143.176 33.8105C143.362 33.3462 143.862 33.0904 144.347 33.2117L145.173 33.4181C145.385 33.4712 145.574 33.5926 145.711 33.7636L148.805 37.6311C149.176 38.0946 149.867 38.1329 150.287 37.7132V37.7132C150.426 37.5742 150.521 37.3971 150.559 37.2043L150.778 36.1108C150.896 35.521 151.504 35.168 152.075 35.3582L153.275 35.7585C153.703 35.9011 154.174 35.7397 154.424 35.3645L154.703 34.9453C154.889 34.6671 155.201 34.5 155.535 34.5H156.653C157.142 34.5 157.559 34.1466 157.639 33.6644L157.986 31.5816C157.995 31.5273 157.999 31.4725 158.004 31.4176C158.034 31.0532 158.26 30.3699 159 30C159.652 29.6739 160.349 29.5472 160.764 29.5115C160.919 29.4982 161.072 29.4639 161.211 29.3944L162.789 28.6056C162.928 28.5361 163.081 28.5 163.236 28.5H163.965C164.299 28.5 164.611 28.3329 164.797 28.0547L165.076 27.6355C165.326 27.2603 165.797 27.0989 166.225 27.2415L167 27.5L167.677 27.7257C168.149 27.8831 168.665 27.6694 168.888 27.2243L170.224 24.5528C170.393 24.214 170.739 24 171.118 24H173.838C173.945 24 174.052 24.0173 174.154 24.0513L175.976 24.6585C176.528 24.8427 177.119 24.5165 177.332 23.9742C178.189 21.7855 180.244 18.9235 183.916 18.4017C184.849 18.2691 186.094 17.0974 185.287 16.6125V16.6125C184.852 16.3513 184.125 15.6242 184.286 15.1428L184.901 13.2963C184.966 13.1034 185.087 12.9346 185.25 12.8126L190.87 8.59737C190.956 8.53288 191.051 8.48304 191.153 8.44848C192.2 8.0931 194.119 7.38058 194.5 7C194.877 6.6231 196.171 6.51255 196.877 6.50104C196.959 6.49971 197.04 6.48997 197.119 6.47014L198.243 6.18937C198.688 6.07807 199 5.67809 199 5.21922V4.11803C199 3.73926 199.214 3.393 199.553 3.22361L200.855 2.57257C200.951 2.52451 201.039 2.46125 201.115 2.38525L201.43 2.07002C201.477 2.02345 201.528 1.9816 201.582 1.94507L201.86 1.75991C202.424 1.3841 203.19 1.66581 203.376 2.31724L203.879 4.07702C203.956 4.34655 204.143 4.57137 204.393 4.69673L204.894 4.9468C205.463 5.23152 205.625 5.96879 205.227 6.46592L204.093 7.88428C204.031 7.96101 203.981 8.04636 203.945 8.13759L203.159 10.1021C203.058 10.3562 202.856 10.5575 202.602 10.6592L201.428 11.1286C200.916 11.3337 200.666 11.9157 200.871 12.4285L201.291 13.4782C201.421 13.8022 201.372 14.1704 201.163 14.4496L200.054 15.9279C200.018 15.9759 199.987 16.027 199.96 16.0807L199.26 17.4809C199.099 17.8019 199.123 18.1843 199.322 18.4829L199.414 18.6204C199.732 19.0981 200.386 19.2102 200.846 18.8657L201.943 18.0426C201.981 18.0142 202.017 17.9832 202.05 17.9497L202.99 17.0097C203.295 16.7053 203.76 16.6298 204.145 16.8223L205.5 17.5L206.783 18.1413C207.202 18.3509 207.419 18.8235 207.305 19.2782L207.027 20.3935C207.009 20.4643 206.984 20.5329 206.951 20.5982L206.165 22.1691C206.059 22.3826 206.032 22.6273 206.09 22.8589L206.5 24.5L207.449 27.346C207.483 27.448 207.5 27.5548 207.5 27.6623V30.1667C207.5 30.383 207.43 30.5936 207.3 30.7667L206.043 32.4431C206.014 32.481 205.983 32.5168 205.95 32.5503L204.55 33.9497C204.517 33.9832 204.486 34.019 204.457 34.0569L203.314 35.5808C203.117 35.8434 203.062 36.1858 203.166 36.4971L203.478 37.4326C203.492 37.4775 203.511 37.5212 203.532 37.5636L204.178 38.8553C204.37 39.2403 204.295 39.7053 203.99 40.0097L203.878 40.1216C203.642 40.358 203.539 40.6969 203.605 41.0248L204 43L204.304 44.5194C204.412 45.061 204.939 45.4122 205.481 45.3039L206.74 45.0521C206.91 45.018 207.087 45.0289 207.252 45.084L207.979 45.3264C208.304 45.4345 208.55 45.7009 208.633 46.0326L208.888 47.0538C208.959 47.337 209.15 47.5751 209.411 47.7057L210.447 48.2236C210.786 48.393 211 48.7393 211 49.118V50.6667C211 50.883 211.07 51.0936 211.2 51.2667L212.446 52.9279C212.482 52.9759 212.513 53.027 212.54 53.0807L213.299 54.5983C213.427 54.8538 213.439 55.1517 213.333 55.4169L212.572 57.3212C212.524 57.4393 212.5 57.5654 212.5 57.6926V59.4648C212.5 59.7992 212.667 60.1114 212.945 60.2969L213.619 60.7461C213.861 60.9073 214.021 61.1658 214.057 61.4541L214.488 64.9017C214.496 64.9671 214.51 65.0315 214.531 65.0939L214.561 65.1838C214.777 65.8313 214.295 66.5 213.613 66.5H213.277C213.096 66.5 212.918 66.4507 212.762 66.3575L210.66 65.0961C210.554 65.0326 210.461 64.95 210.385 64.8526L207 60.5L203.559 57.0585C203.52 57.0196 203.484 56.9775 203.452 56.9327L201.142 53.6984C201.049 53.5681 200.988 53.4172 200.966 53.2586L200.5 50L200.046 47.276C200.016 47.0955 200.036 46.9101 200.104 46.7402L200.904 44.7395C200.967 44.5824 200.989 44.4119 200.968 44.2441L200.516 40.6278C200.505 40.5429 200.484 40.4598 200.452 40.3804L199.576 38.1906C199.526 38.0648 199.451 37.9506 199.355 37.8549L197.714 36.2141C197.574 36.0745 197.397 35.9793 197.203 35.9406L195.406 35.5812C195.146 35.5292 194.876 35.5826 194.655 35.7298L194.426 35.8827C193.931 36.2124 193.832 36.8983 194.212 37.3549L195.768 39.2219C195.918 39.4016 196 39.6281 196 39.862V41.2792C196 41.7097 195.725 42.0918 195.316 42.2279L194.893 42.369C194.641 42.4529 194.433 42.6333 194.315 42.8705L193.706 44.0886C193.575 44.3497 193.337 44.5407 193.054 44.6116L192.548 44.7381C191.983 44.8794 191.657 45.4718 191.841 46.0245L192.5 48L193 50.5L193.36 52.6571C193.44 53.1425 193.156 53.6146 192.689 53.7702L192.224 53.9253C192.077 53.9744 191.943 54.0572 191.833 54.1669L190 56L188.196 57.8041C188.068 57.9323 187.907 58.0232 187.731 58.0672L186.168 58.458C186.057 58.4858 185.951 58.5325 185.856 58.5961L184.5 59.5L182.206 61.3353C182.071 61.4433 181.966 61.5843 181.902 61.7448L181.049 63.8772C181.017 63.9587 180.973 64.0356 180.921 64.1058L179.7 65.7333C179.57 65.9064 179.5 66.117 179.5 66.3333V68.3074C179.5 68.4346 179.476 68.5607 179.428 68.6788L178.5 71L177.5 74L177 75.5L176.051 78.346C176.017 78.448 176 78.5548 176 78.6623V80.2792C176 80.7097 176.275 81.0918 176.684 81.2279L177.346 81.4487C177.448 81.4827 177.555 81.5 177.662 81.5H179.197C179.395 81.5 179.588 81.5584 179.752 81.6679L180.318 82.0453C180.715 82.3097 181.243 82.2574 181.58 81.9203L182.304 81.1959C182.432 81.0677 182.523 80.9071 182.567 80.7313L182.867 79.5326C182.95 79.2009 183.196 78.9345 183.521 78.8264L184.346 78.5513C184.448 78.5173 184.555 78.5 184.662 78.5H186.338C186.445 78.5 186.552 78.5173 186.654 78.5513L187.607 78.869C187.859 78.9529 188.067 79.1333 188.185 79.3705L188.894 80.7889C188.964 80.9277 189 81.0808 189 81.2361V82.5V83.6972C189 83.8946 189.058 84.0877 189.168 84.2519L190 85.5L191 87.5L191.904 88.8559C191.967 88.9512 192.014 89.0568 192.042 89.168L192.47 90.8806C192.49 90.9599 192.5 91.0413 192.5 91.1231V95.8599C192.5 95.9529 192.513 96.0453 192.538 96.1347L193.415 99.2025C193.47 99.3963 193.466 99.6023 193.402 99.7935L192.531 102.406C192.51 102.469 192.496 102.533 192.488 102.598L192.012 106.402C192.004 106.467 191.99 106.531 191.969 106.594L191 109.5L190.567 111.231C190.523 111.407 190.432 111.568 190.304 111.696L189.167 112.833C189.057 112.943 188.974 113.077 188.925 113.224L188.728 113.816C188.592 114.225 188.21 114.5 187.779 114.5H187H186.221C185.79 114.5 185.408 114.775 185.272 115.184L185.042 115.873C185.014 115.957 184.975 116.037 184.926 116.111L184.055 117.418C184.018 117.472 183.977 117.523 183.93 117.57L183.784 117.716C183.602 117.898 183.356 118 183.099 118V118C182.732 118 182.396 117.793 182.232 117.464L181.606 116.211C181.536 116.072 181.5 115.919 181.5 115.764V113.5V110.803C181.5 110.605 181.558 110.412 181.668 110.248L182.445 109.082C182.482 109.028 182.523 108.977 182.57 108.93L183.45 108.05C183.483 108.017 183.519 107.986 183.557 107.957L185.1 106.8C185.352 106.611 185.5 106.315 185.5 106V104.071C185.5 104.024 185.497 103.976 185.49 103.93L185 100.5L184.722 99.1108C184.604 98.521 183.996 98.168 183.425 98.3582L183.127 98.4577C183.043 98.4858 182.963 98.525 182.889 98.5743L181.643 99.405C181.548 99.4679 181.465 99.5463 181.397 99.637L180.043 101.443C180.014 101.481 179.983 101.517 179.95 101.55L179.207 102.293C178.817 102.683 178.183 102.683 177.793 102.293L177.57 102.07C177.523 102.023 177.482 101.972 177.445 101.918L176.69 100.785C176.567 100.6 176.385 100.462 176.174 100.391L175.154 100.051C175.052 100.017 174.945 100 174.838 100H173H170.662C170.555 100 170.448 99.9827 170.346 99.9487L169.127 99.5423C169.043 99.5142 168.963 99.475 168.889 99.4257L167.945 98.7969C167.667 98.6114 167.5 98.2992 167.5 97.9648V96.8333C167.5 96.617 167.43 96.4064 167.3 96.2333L166.118 94.6567C166.04 94.5532 165.943 94.4658 165.832 94.3992L163.594 93.0565C163.532 93.0189 163.465 92.9884 163.396 92.9653L162 92.5L159.597 92.0194C159.533 92.0065 159.467 92 159.401 92H157H155.5C155.185 92 154.889 92.1482 154.7 92.4L153.7 93.7333C153.57 93.9064 153.5 94.117 153.5 94.3333V95.3377C153.5 95.4452 153.517 95.552 153.551 95.654L153.949 96.846C153.983 96.948 154 97.0548 154 97.1623V98.5V99.7639C154 99.9192 153.964 100.072 153.894 100.211L153.06 101.88C153.02 101.96 152.991 102.044 152.974 102.131L152.5 104.5L152.228 105.316C152.092 105.725 151.71 106 151.279 106H150H148.662C148.555 106 148.448 105.983 148.346 105.949L147.154 105.551C147.052 105.517 146.945 105.5 146.838 105.5H145.303C145.105 105.5 144.912 105.442 144.748 105.332L144.332 105.055C143.873 104.748 143.252 104.873 142.945 105.332L142.611 105.834C142.538 105.943 142.443 106.038 142.334 106.111L141 107L139.5 108L138.252 108.832C138.088 108.942 137.895 109 137.697 109H135.123C135.041 109 134.96 108.99 134.881 108.97L133 108.5L131 108L127.218 107.055C127.075 107.019 126.925 107.015 126.78 107.044L124.906 107.419C124.646 107.471 124.376 107.417 124.155 107.27L123.082 106.555C123.028 106.518 122.977 106.477 122.93 106.43L121.55 105.05C121.517 105.017 121.486 104.981 121.457 104.943L120.142 103.189C120.048 103.065 119.928 102.964 119.789 102.894L118.12 102.06C118.04 102.02 117.956 101.991 117.869 101.974L116.435 101.687C115.912 101.582 115.398 101.907 115.269 102.425L115 103.5L114.631 105.346C114.552 105.742 114.242 106.052 113.846 106.131L112.187 106.463C112.064 106.487 111.936 106.488 111.812 106.466L106.5 105.5" stroke="#DFBC82" stroke-width="2"/>
<mask id="path-2-inside-1" fill="white">
<rect y="51" width="72" height="45" rx="1"/>
</mask>
<rect y="51" width="72" height="45" rx="1" stroke="#DFBC82" stroke-width="4" mask="url(#path-2-inside-1)"/>
<path d="M2 100H9C7.75779 100 6.89733 104.971 6.55061 108.038C6.50125 108.475 6.18017 108.835 5.74455 108.893C4.79062 109.02 3.4626 109.09 2.68421 108.772C1.75025 108.391 1.22391 107.392 1.03871 106.835C1.01071 106.751 1 106.663 1 106.574V101C1 100.448 1.44772 100 2 100Z" stroke="#DFBC82" stroke-width="2"/>
<path d="M30.0187 108.35C29.829 106.119 28.5121 103.153 27.3874 101.053C27.0181 100.363 27.5072 99.5 28.2896 99.5H72.6667C72.883 99.5 73.0936 99.4298 73.2667 99.3L74.6 98.3C74.8518 98.1111 75 97.8148 75 97.5V63C75 62.4477 75.4477 62 76 62H88.4882C88.8096 62 89.1114 62.1545 89.2993 62.4152L104.286 83.2033C104.424 83.3949 104.49 83.6276 104.473 83.8633C104.154 88.331 103.943 97.1651 105.5 99.5C107.063 101.844 106.209 105.97 105.547 107.868C105.516 107.957 105.472 108.04 105.416 108.114C104.383 109.492 103.741 109.548 102.5 109.519C101.948 109.506 101.502 109.054 101.438 108.505C100.935 104.182 97.3147 96.5 89 96.5C82.2272 96.5 78.0205 103.136 77.5451 108.502C77.4964 109.052 77.0586 109.5 76.5063 109.5H31.1455C30.537 109.5 30.0702 108.956 30.0187 108.35Z" stroke="#DFBC82" stroke-width="2"/>
<circle cx="18" cy="108" r="8" stroke="#DFBC82" stroke-width="2"/>
<circle cx="90" cy="108" r="8" stroke="#DFBC82" stroke-width="2"/>
<path d="M81 81.5V69C81 68.4477 81.4477 68 82 68H85.5C85.8148 68 86.1111 68.1482 86.3 68.4L94.4796 79.3062C94.7782 79.7043 94.7386 80.2614 94.3867 80.6133L92.7929 82.2071C92.6054 82.3946 92.351 82.5 92.0858 82.5H82C81.4477 82.5 81 82.0523 81 81.5Z" stroke="#DFBC82" stroke-width="2"/>
</svg>
