<svg width="149" height="119" viewBox="0 0 149 119" fill="none" xmlns="http://www.w3.org/2000/svg">
<path d="M80.4037 45.3371C80.4037 60.7678 67.8766 73.2792 52.4206 73.2792C36.9646 73.2792 24.4375 60.7678 24.4375 45.3371C24.4375 29.9065 36.9646 17.395 52.4206 17.395C67.8766 17.395 80.4037 29.9065 80.4037 45.3371Z" stroke="#DFBC82" stroke-width="2"/>
<path d="M0 31.1733H23.4332L22.1998 33.6365H2.46665L0 31.1733Z" fill="#DFBC82"/>
<path d="M6.16797 43.4893H19.7345V45.9524H8.63462L6.16797 43.4893Z" fill="#DFBC82"/>
<path d="M2.46484 58.2686H22.198L23.4314 60.7317H4.93149L2.46484 58.2686Z" fill="#DFBC82"/>
<path d="M60.3426 42.8221C62.7578 43.6255 65.2892 44.5422 67.4374 45.337C65.2892 46.1318 62.7578 47.0485 60.3426 47.852C58.6167 48.4261 56.9626 48.9381 55.5577 49.3055C54.1231 49.6807 53.0418 49.8791 52.4171 49.8791C49.9029 49.8791 47.8672 47.8442 47.8672 45.337C47.8672 42.8298 49.9029 40.7949 52.4171 40.7949C53.0418 40.7949 54.1231 40.9933 55.5577 41.3686C56.9626 41.736 58.6167 42.248 60.3426 42.8221Z" stroke="#DFBC82" stroke-width="2"/>
<path d="M76.7954 21.1179L71.7454 16.5335C71.3026 16.1315 71.3093 15.4335 71.7596 15.04L75.2268 12.0105C75.5872 11.6956 76.1202 11.6802 76.4982 11.9737L80.6966 15.2345C81.0964 15.5451 81.2011 16.1054 80.9403 16.5393L78.3247 20.8925C78 21.433 77.2622 21.5417 76.7954 21.1179Z" stroke="#DFBC82" stroke-width="2"/>
<path d="M56.7333 10.0053V11.4684H48.1V9.93026C48.1 9.4194 47.6859 9.00526 47.175 9.00526C46.6641 9.00526 46.25 8.59113 46.25 8.08027V2C46.25 1.44772 46.6977 1 47.25 1H58.1999C58.7522 1 59.1999 1.44772 59.1999 2V8.00526C59.1999 8.55755 58.7522 9.00526 58.1999 9.00526H57.7333C57.181 9.00526 56.7333 9.45298 56.7333 10.0053Z" stroke="#DFBC82" stroke-width="2"/>
<path d="M57.3438 73.0473V118H85.0935V79.821H109.76V118H138.126V61.3473L97.4268 19.4736L79.5436 38.1557" stroke="#DFBC82" stroke-width="2"/>
<path d="M147.993 60.7318L127.767 39.7949M127.767 39.7949L97.4269 8.38965L75.8438 30.4616M127.767 39.7949V13.9318" stroke="#DFBC82" stroke-width="2"/>
</svg>
