<svg width="151" height="119" viewBox="0 0 151 119" fill="none" xmlns="http://www.w3.org/2000/svg">
<path d="M86.7344 7.91357H10.5727C5.28585 7.91357 1 12.1994 1 17.4863V17.4863C1 22.7732 5.28586 27.059 10.5727 27.059H138.175V17.9136C138.175 12.3907 133.698 7.91357 128.175 7.91357H109.794" stroke="#DFBC82" stroke-width="2"/>
<path d="M1 18.55V108C1 113.523 5.47715 118 11 118H139.409C144.932 118 149.409 113.523 149.409 108V37.0591C149.409 31.5362 144.932 27.0591 139.409 27.0591H136.992M27.0159 27.0591L104.284 1.8335C105.738 1.35901 107.316 2.05342 107.947 3.44566L118.663 27.0591" stroke="#DFBC82" stroke-width="2"/>
<path d="M120.254 71.3043V71.0952C120.254 66.1247 124.283 62.0952 129.254 62.0952H149V80.3043H129.254C124.283 80.3043 120.254 76.2749 120.254 71.3043Z" stroke="#DFBC82" stroke-width="2"/>
<rect x="132.258" y="68.541" width="5.91271" height="5.31818" fill="#DFBC82"/>
</svg>
