<svg width="117" height="109" viewBox="0 0 117 109" fill="none" xmlns="http://www.w3.org/2000/svg">
<path d="M3.3374 24.5L12.9207 20.9844L19.4654 23.5625L70.187 2L77.6667 6.45312M3.3374 24.5L9.41463 27.0781L3.3374 29.8906M3.3374 24.5V29.8906M3.3374 29.8906L1 31.0625M1 31.0625L10.8171 35.0469M1 31.0625V38.0938M10.8171 82.3906L1 78.6406V72.3125M10.8171 82.3906L19.4654 78.6406M10.8171 82.3906V76.0625M10.8171 35.0469L19.4654 31.5312M10.8171 35.0469V42.0781M19.4654 31.5312L86.5488 60.125M19.4654 31.5312V38.7969M19.4654 78.6406L60.8374 96.9219M19.4654 78.6406V72.3125M60.8374 96.9219V102.781L69.0183 107M60.8374 96.9219V87.1953M69.0183 107V65.2812M69.0183 107L76.7317 102.781M69.0183 65.2812L60.8374 61.7656M69.0183 65.2812L76.7317 60.8281M60.8374 61.7656L64.9278 59.4219M60.8374 61.7656V67.1562M76.7317 60.8281L69.0183 57.0781L64.9278 59.4219M76.7317 60.8281C76.7317 62.7031 76.7317 66.2188 76.7317 66.2188M76.7317 102.781L86.5488 107M76.7317 102.781V94.1094M86.5488 107L94.4959 103.953V96.9219M86.5488 107V98.3281M86.5488 60.125L94.4959 57.0781M86.5488 60.125V69.7344M94.4959 57.0781L91.2236 55.657M94.4959 57.0781V62.7031M77.6667 6.45312L28.1138 28.25L77.6667 49.8711M77.6667 6.45312V49.8711M77.6667 49.8711L83.0427 52.1043M83.0427 52.1043L108.754 41.375L116 45.125M83.0427 52.1043L91.2236 55.657M116 45.125L91.2236 55.657M116 45.125V54.5M94.4959 62.7031L116 54.5M94.4959 62.7031V72.3125M116 54.5V64.1094M116 64.1094L94.4959 72.3125M116 64.1094V72.3125M94.4959 72.3125V80.9844M94.4959 80.9844L116 72.3125M94.4959 80.9844V89.1875M116 72.3125V80.2812M116 80.2812L94.4959 89.1875M116 80.2812V87.7812L94.4959 96.9219M94.4959 89.1875V96.9219M86.5488 69.7344L76.7317 66.2188M86.5488 69.7344V79.5781M76.7317 66.2188V75.8281M76.7317 75.8281L86.5488 79.5781M76.7317 75.8281V84.7344M86.5488 79.5781V88.7188M86.5488 88.7188L76.7317 84.7344M86.5488 88.7188V98.3281M76.7317 84.7344V94.1094M76.7317 94.1094L86.5488 98.3281M64.9278 59.4219L19.4654 40.2031M19.4654 40.2031V38.7969M19.4654 40.2031V48.1719M19.4654 49.8711L60.8374 67.1562M19.4654 49.8711V48.1719M19.4654 49.8711V57.0781M60.8374 67.1562V77.4688M60.8374 77.4688L19.4654 59.6562M60.8374 77.4688V87.1953M19.4654 59.6562V57.0781M19.4654 59.6562V64.8125M19.4654 68.7969L60.8374 87.1953M19.4654 68.7969V64.8125M19.4654 68.7969V72.3125M19.4654 38.7969L10.8171 42.0781M10.8171 42.0781L1 38.0938M10.8171 42.0781V51.2773M1 38.0938V47.3441M10.8171 51.2773L19.4654 48.1719M10.8171 51.2773V60.3594M10.8171 51.2773L1 47.3441M19.4654 57.0781L10.8171 60.3594M10.8171 60.3594L1 56.5945M10.8171 60.3594V68.3281M1 56.5945V47.3441M1 56.5945V64.8125M1 64.8125L10.8171 68.3281M1 64.8125V72.3125M10.8171 68.3281V76.0625M10.8171 68.3281L19.4654 64.8125M19.4654 64.8125V72.3125M19.4654 72.3125L10.8171 76.0625M10.8171 76.0625L1 72.3125" stroke="white" stroke-width="2"/>
</svg>
