<svg width="36" height="35" viewBox="0 0 36 35" fill="none" xmlns="http://www.w3.org/2000/svg">
<path d="M1.61435 22.1963L16.1506 7.68026L27.7824 7.423L27.518 19.0662L12.9819 33.5821L1.61435 22.1963Z" stroke="#DFBC82" stroke-width="2"/>
<path d="M24.0388 13.1229C24.0388 14.1544 23.203 14.99 22.1727 14.99C21.1424 14.99 20.3066 14.1544 20.3066 13.1229C20.3066 12.0914 21.1424 11.2559 22.1727 11.2559C23.203 11.2559 24.0388 12.0914 24.0388 13.1229Z" stroke="#DFBC82" stroke-width="2"/>
<path d="M12.405 24.6435L10.6366 22.9426L9.24083 24.3948L8.23257 23.425L9.62832 21.9729L8.5356 20.9219L9.33752 20.0876L10.4302 21.1385L11.1256 20.4151L10.0329 19.3641L10.8297 18.5351L11.9224 19.5861L15.6224 15.7365L18.4571 18.463C19.2806 19.2551 19.7321 20.0924 19.8116 20.975C19.8911 21.8577 19.5874 22.6563 18.9005 23.371C18.1798 24.1208 17.3909 24.4765 16.5339 24.4381C15.6837 24.3995 14.8312 23.9724 13.9761 23.1568L12.1338 21.3849L11.4385 22.1083L13.2069 23.8092L12.405 24.6435ZM12.9307 20.5558L14.7571 22.3125C15.3026 22.8372 15.8414 23.1081 16.3734 23.1253C16.9055 23.1425 17.4084 22.9046 17.8821 22.4118C18.3118 21.9647 18.5108 21.4617 18.4791 20.9028C18.4508 20.3403 18.1867 19.8154 17.6869 19.3278L15.8287 17.5406L12.9307 20.5558Z" fill="#DFBC82"/>
</svg>
